<?xml version="1.0" encoding="utf-8"?>
<!-- Generator: Adobe Illustrator 16.0.0, SVG Export Plug-In . SVG Version: 6.00 Build 0)  -->
<!DOCTYPE svg PUBLIC "-//W3C//DTD SVG 1.1//EN" "http://www.w3.org/Graphics/SVG/1.1/DTD/svg11.dtd">
<svg version="1.1" id="图层_1" xmlns="http://www.w3.org/2000/svg" xmlns:xlink="http://www.w3.org/1999/xlink" x="0px" y="0px"
	 width="16px" height="16px" viewBox="0 0 16 16" enable-background="new 0 0 16 16" xml:space="preserve">
<path opacity="0.6" fill="#888888" d="M16,7.918c0,4.418-3.581,7.998-7.998,7.998C3.581,15.916,0,12.336,0,7.918
	s3.581-8.002,8.002-8.002C12.419-0.084,16,3.5,16,7.918z"/>
<path fill="#FFFFFF" d="M8.754,7.916l2.239-2.238c0.221-0.221,0.231-0.572,0.023-0.777c-0.208-0.209-0.556-0.199-0.777,0.021
	L8,7.162l-2.24-2.24C5.54,4.701,5.189,4.691,4.983,4.9C4.775,5.105,4.786,5.457,5.006,5.678l2.24,2.238l-2.24,2.24
	c-0.221,0.221-0.231,0.568-0.023,0.777c0.206,0.207,0.556,0.197,0.777-0.023L8,8.67l2.24,2.24c0.221,0.221,0.569,0.23,0.777,0.023
	c0.208-0.209,0.198-0.557-0.023-0.777L8.754,7.916z"/>
</svg>
