<?xml version="1.0" encoding="utf-8"?>
<!-- Generator: Adobe Illustrator 16.0.0, SVG Export Plug-In . SVG Version: 6.00 Build 0)  -->
<!DOCTYPE svg PUBLIC "-//W3C//DTD SVG 1.1//EN" "http://www.w3.org/Graphics/SVG/1.1/DTD/svg11.dtd">
<svg version="1.1" id="图层_1" xmlns="http://www.w3.org/2000/svg" xmlns:xlink="http://www.w3.org/1999/xlink" x="0px" y="0px"
	 width="16px" height="16px" viewBox="0 0 16 16" enable-background="new 0 0 16 16" xml:space="preserve">
<g>
	<path fill-rule="evenodd" clip-rule="evenodd" fill="#888888" d="M15.786,14.861l-3.766-3.765c0.97-1.173,1.556-2.678,1.556-4.319
		C13.576,3.033,10.543,0,6.798,0C3.056,0,0.02,3.033,0.02,6.777c0,3.744,3.036,6.779,6.778,6.779c1.617,0,3.099-0.565,4.263-1.508
		l2.803,2.785l0.002-0.003l0.975,0.974c0.262,0.262,0.684,0.262,0.946,0C16.046,15.544,16.046,15.122,15.786,14.861L15.786,14.861z
		 M6.798,12.228c-3.009,0-5.451-2.44-5.451-5.451c0-3.009,2.442-5.449,5.451-5.449c3.011,0,5.451,2.44,5.451,5.449
		C12.249,9.788,9.809,12.228,6.798,12.228L6.798,12.228z"/>
</g>
</svg>
