<?xml version="1.0" encoding="UTF-8"?>
<svg width="16px" height="16px" viewBox="0 0 16 16" version="1.1" xmlns="http://www.w3.org/2000/svg" xmlns:xlink="http://www.w3.org/1999/xlink">
    <!-- Generator: Sketch 52.6 (67491) - http://www.bohemiancoding.com/sketch -->
    <title>i</title>
    <desc>Created with Sketch.</desc>
    <g id="i" stroke="none" stroke-width="1" fill="none" fill-rule="evenodd">
        <path d="M7,6 L9,6 L9,4 L7,4 L7,6 Z M9,11 L10,11 L10,12 L7,12 L7,8 L6,8 L6,7 L9,7 L9,11 Z M8,14 C4.691,14 2,11.309 2,8 C2,4.691 4.691,2 8,2 C11.309,2 14,4.691 14,8 C14,11.309 11.309,14 8,14 Z M8,0 C3.582,0 0,3.582 0,8 C0,12.418 3.582,16 8,16 C12.418,16 16,12.418 16,8 C16,3.582 12.418,0 8,0 Z" id="Fill-1-Copy" fill="#888888"></path>
    </g>
</svg>