<?xml version="1.0" encoding="utf-8"?>
<!-- Generator: Adobe Illustrator 16.0.0, SVG Export Plug-In . SVG Version: 6.00 Build 0)  -->
<!DOCTYPE svg PUBLIC "-//W3C//DTD SVG 1.1//EN" "http://www.w3.org/Graphics/SVG/1.1/DTD/svg11.dtd">
<svg version="1.1" id="图层_1" xmlns="http://www.w3.org/2000/svg" xmlns:xlink="http://www.w3.org/1999/xlink" x="0px" y="0px"
	 width="16px" height="16px" viewBox="0 0 16 16" enable-background="new 0 0 16 16" xml:space="preserve">
<g>
	<path fill="#AAAAAA" d="M14.906,3.881H1.052C0.47,3.881,0,4.352,0,4.933v8.593c0,0.581,0.47,1.052,1.052,1.052h13.854
		c0.58,0,1.052-0.471,1.052-1.052V4.933C15.958,4.352,15.486,3.881,14.906,3.881z M15.334,12.993c0,0.509-0.435,0.922-0.97,0.922
		H1.594c-0.537,0-0.97-0.413-0.97-0.922V5.465c0-0.509,0.433-0.922,0.97-0.922h12.771c0.535,0,0.97,0.413,0.97,0.922V12.993z"/>
	<rect x="2.366" y="5.689" fill="#AAAAAA" width="1.335" height="1.966"/>
	<rect x="4.839" y="5.689" fill="#AAAAAA" width="1.335" height="1.966"/>
	<rect x="7.312" y="5.689" fill="#AAAAAA" width="1.335" height="1.966"/>
	<rect x="9.783" y="5.689" fill="#AAAAAA" width="1.336" height="1.966"/>
	<rect x="3.603" y="8.799" fill="#AAAAAA" width="1.335" height="1.966"/>
	<rect x="6.075" y="8.799" fill="#AAAAAA" width="1.335" height="1.966"/>
	<rect x="8.547" y="8.799" fill="#AAAAAA" width="1.335" height="1.966"/>
	<rect x="11.02" y="8.799" fill="#AAAAAA" width="1.335" height="1.966"/>
	<rect x="12.256" y="5.689" fill="#AAAAAA" width="1.335" height="1.966"/>
	<rect x="3.603" y="11.781" fill="#AAAAAA" width="8.752" height="1.043"/>
	<polygon fill="#AAAAAA" points="7.979,0 6.175,1.804 9.783,1.804 	"/>
</g>
</svg>
