<?xml version="1.0" encoding="utf-8"?>
<!-- Generator: Adobe Illustrator 16.0.0, SVG Export Plug-In . SVG Version: 6.00 Build 0)  -->
<!DOCTYPE svg PUBLIC "-//W3C//DTD SVG 1.1//EN" "http://www.w3.org/Graphics/SVG/1.1/DTD/svg11.dtd">
<svg version="1.1" id="图层_1" xmlns="http://www.w3.org/2000/svg" xmlns:xlink="http://www.w3.org/1999/xlink" x="0px" y="0px"
	 width="16px" height="16px" viewBox="0 0 16 16" enable-background="new 0 0 16 16" xml:space="preserve">
<g>
	<path fill-rule="evenodd" clip-rule="evenodd" fill="#ffffff" d="M8.631,15.367C8.631,15.717,8.35,16,8,16l0,0
		c-0.348,0-0.631-0.283-0.631-0.633V0.631C7.369,0.283,7.652,0,8,0l0,0c0.35,0,0.631,0.283,0.631,0.631V15.367z"/>
	<path fill-rule="evenodd" clip-rule="evenodd" fill="#ffffff" d="M15.369,7.367C15.719,7.367,16,7.65,16,8l0,0
		c0,0.348-0.281,0.631-0.631,0.631H0.631C0.283,8.631,0,8.348,0,8l0,0c0-0.35,0.283-0.633,0.631-0.633H15.369z"/>
</g>
</svg>
