<?xml version="1.0" encoding="UTF-8"?>
<svg width="10px" height="18px" viewBox="0 0 10 18" version="1.1" xmlns="http://www.w3.org/2000/svg" xmlns:xlink="http://www.w3.org/1999/xlink">
    <!-- Generator: Sketch 52.6 (67491) - http://www.bohemiancoding.com/sketch -->
    <title>Group 76 Copy</title>
    <desc>Created with Sketch.</desc>
    <g id="Page-1" stroke="none" stroke-width="1" fill="none" fill-rule="evenodd">
        <g id="画板-copy-11" transform="translate(-712.000000, -234.000000)" fill="#DDDDDD">
            <g id="步骤条" transform="translate(422.000000, 233.000000)">
                <g id="Group-76-Copy" transform="translate(290.000000, 1.000000)">
                    <rect id="Rectangle-93" x="0" y="0" width="2" height="1"></rect>
                    <rect id="Rectangle-93-Copy" x="1" y="1" width="2" height="1"></rect>
                    <rect id="Rectangle-93-Copy-2" x="2" y="2" width="2" height="1"></rect>
                    <rect id="Rectangle-93-Copy-3" x="3" y="3" width="2" height="1"></rect>
                    <rect id="Rectangle-93-Copy-4" x="4" y="4" width="2" height="1"></rect>
                    <rect id="Rectangle-93-Copy-5" x="5" y="5" width="2" height="1"></rect>
                    <rect id="Rectangle-93-Copy-6" x="6" y="6" width="2" height="1"></rect>
                    <rect id="Rectangle-93-Copy-7" x="7" y="7" width="2" height="1"></rect>
                    <rect id="Rectangle-93-Copy-8" x="8" y="8" width="2" height="1"></rect>
                    <rect id="Rectangle-93-Copy-9" x="8" y="9" width="2" height="1"></rect>
                    <rect id="Rectangle-93-Copy-10" x="7" y="10" width="2" height="1"></rect>
                    <rect id="Rectangle-93-Copy-11" x="6" y="11" width="2" height="1"></rect>
                    <rect id="Rectangle-93-Copy-12" x="5" y="12" width="2" height="1"></rect>
                    <rect id="Rectangle-93-Copy-13" x="4" y="13" width="2" height="1"></rect>
                    <rect id="Rectangle-93-Copy-14" x="3" y="14" width="2" height="1"></rect>
                    <rect id="Rectangle-93-Copy-15" x="2" y="15" width="2" height="1"></rect>
                    <rect id="Rectangle-93-Copy-16" x="1" y="16" width="2" height="1"></rect>
                    <rect id="Rectangle-93-Copy-17" x="0" y="17" width="2" height="1"></rect>
                </g>
            </g>
        </g>
    </g>
</svg>