<?xml version="1.0" encoding="UTF-8"?>
<svg width="174px" height="174px" viewBox="0 0 174 174" version="1.1" xmlns="http://www.w3.org/2000/svg" xmlns:xlink="http://www.w3.org/1999/xlink">
    <!-- Generator: Sketch 52.6 (67491) - http://www.bohemiancoding.com/sketch -->
    <title>分组 2</title>
    <desc>Created with Sketch.</desc>
    <g id="Page-1" stroke="none" stroke-width="1" fill="none" fill-rule="evenodd">
        <g id="画板-copy-7" transform="translate(-893.000000, -292.000000)" fill-rule="nonzero">
            <g id="分组-7" transform="translate(780.000000, 122.000000)">
                <g id="分组-2" transform="translate(113.000000, 170.000000)">
                    <rect id="矩形" stroke="#DDDDDD" x="0.5" y="0.5" width="173" height="173"></rect>
                    <path d="M174,173 L174,174 L167.333333,174 L154,174 L154,173 L173,173 L173,153 L174,153 L174,173 Z M173,1 L154,1 L154,0 L174,0 L174,1 L174,21 L173,21 L173,1 Z M1,173 L20,173 L20,174 L0,174 L0,173 L0,153 L1,153 L1,173 Z M1,0 L20,0 L20,1 L1,1 L1,20 L0,20 L0,0 L1,0 Z" id="合并形状" fill="#006EFF"></path>
                </g>
            </g>
        </g>
    </g>
</svg>