<?xml version="1.0" encoding="UTF-8"?>
<svg width="210px" height="210px" viewBox="0 0 210 210" version="1.1" xmlns="http://www.w3.org/2000/svg" xmlns:xlink="http://www.w3.org/1999/xlink">
    <!-- Generator: Sketch 52.6 (67491) - http://www.bohemiancoding.com/sketch -->
    <title>Fill 1</title>
    <desc>Created with Sketch.</desc>
    <g id="Page-1" stroke="none" stroke-width="1" fill="none" fill-rule="evenodd">
        <g id="分组" fill="#BBBBBB">
            <path d="M172.7965,95.4847 C171.5445,96.4097 170.0865,96.8557 168.6405,96.8557 C166.4955,96.8557 164.3795,95.8747 163.0055,94.0167 C159.4745,89.2407 154.0475,86.5007 148.1175,86.5007 C142.1875,86.5007 136.7605,89.2407 133.2285,94.0167 C130.9295,97.1267 126.5465,97.7827 123.4385,95.4847 C120.3295,93.1857 119.6725,88.8027 121.9705,85.6947 C128.0785,77.4327 137.8535,72.5007 148.1175,72.5007 C158.3815,72.5007 168.1555,77.4327 174.2635,85.6947 C176.5625,88.8027 175.9045,93.1857 172.7965,95.4847 M105.0005,174.6667 C92.8495,174.6667 83.0005,162.1307 83.0005,146.6667 C83.0005,131.2027 92.8495,118.6667 105.0005,118.6667 C117.1505,118.6667 127.0005,131.2027 127.0005,146.6667 C127.0005,162.1307 117.1505,174.6667 105.0005,174.6667 M79.8885,94.0167 C76.3575,89.2407 70.9305,86.5007 65.0005,86.5007 C59.0695,86.5007 53.6425,89.2407 50.1105,94.0167 C47.8115,97.1267 43.4285,97.7827 40.3205,95.4847 C37.2125,93.1857 36.5545,88.8027 38.8535,85.6947 C44.9615,77.4327 54.7355,72.5007 65.0005,72.5007 C75.2645,72.5007 85.0385,77.4327 91.1465,85.6947 C93.4445,88.8027 92.7875,93.1857 89.6795,95.4847 C88.4275,96.4097 86.9685,96.8557 85.5235,96.8557 C83.3785,96.8557 81.2615,95.8747 79.8885,94.0167 M105.0005,0.0007 C47.0105,0.0007 0.0005,47.0097 0.0005,105.0007 C0.0005,142.8927 20.0745,176.0927 50.1665,194.5567 L50.1665,118.0237 C50.1665,114.1577 53.3005,111.0237 57.1665,111.0237 C61.0325,111.0237 64.1665,114.1577 64.1665,118.0237 L64.1665,201.7637 C76.7185,207.0667 90.5165,210.0007 105.0005,210.0007 C119.1005,210.0007 132.5485,207.2137 144.8335,202.1727 L144.8335,118.0237 C144.8335,114.1577 147.9675,111.0237 151.8335,111.0237 C155.6995,111.0237 158.8335,114.1577 158.8335,118.0237 L158.8335,195.1617 C189.4795,176.8237 210.0005,143.3097 210.0005,105.0007 C210.0005,47.0097 162.9895,0.0007 105.0005,0.0007" id="Fill-1"></path>
        </g>
    </g>
</svg>