<?xml version="1.0" encoding="UTF-8"?>
<svg width="100%" height="100%" viewBox="0 0 1240 768" preserveAspectRatio="none" version="1.1" xmlns="http://www.w3.org/2000/svg" xmlns:xlink="http://www.w3.org/1999/xlink">
    <!-- Generator: Sketch 52.6 (67491) - http://www.bohemiancoding.com/sketch -->
    <title>画板 copy 20</title>
    <desc>Created with Sketch.</desc>
    <defs>
        <linearGradient x1="12.7058141%" y1="0%" x2="87.8860148%" y2="84.5839804%" id="linearGradient-1">
            <stop stop-color="#EEEEEE" offset="0%"></stop>
            <stop stop-color="#50A3FA" offset="100%"></stop>
        </linearGradient>
        <linearGradient x1="66.4121192%" y1="0%" x2="24.6780817%" y2="98.1111351%" id="linearGradient-2">
            <stop stop-color="#3051E6" offset="0%"></stop>
            <stop stop-color="#53AFFB" offset="100%"></stop>
        </linearGradient>
        <linearGradient x1="12.7058141%" y1="0%" x2="87.8860148%" y2="84.5839804%" id="linearGradient-3">
            <stop stop-color="#EEEEEE" offset="0%"></stop>
            <stop stop-color="#50A3FA" stop-opacity="0.26732337" offset="100%"></stop>
        </linearGradient>
        <linearGradient x1="50%" y1="0%" x2="50%" y2="100%" id="linearGradient-4">
            <stop stop-color="#326FF6" offset="0%"></stop>
            <stop stop-color="#394EF2" offset="100%"></stop>
        </linearGradient>
        <linearGradient x1="50%" y1="0%" x2="50%" y2="100%" id="linearGradient-5">
            <stop stop-color="#3683F7" offset="0%"></stop>
            <stop stop-color="#3B50F4" offset="100%"></stop>
        </linearGradient>
        <linearGradient x1="50%" y1="0%" x2="50%" y2="100%" id="linearGradient-6">
            <stop stop-color="#435FF1" offset="0%"></stop>
            <stop stop-color="#404BEF" offset="100%"></stop>
        </linearGradient>
        <linearGradient x1="50%" y1="0%" x2="50%" y2="100%" id="linearGradient-7">
            <stop stop-color="#435CF2" offset="0%"></stop>
            <stop stop-color="#497CF5" offset="100%"></stop>
        </linearGradient>
        <linearGradient x1="50%" y1="0%" x2="50%" y2="100%" id="linearGradient-8">
            <stop stop-color="#367EF6" offset="0%"></stop>
            <stop stop-color="#4057F2" offset="100%"></stop>
        </linearGradient>
        <linearGradient x1="50%" y1="0%" x2="50%" y2="100%" id="linearGradient-9">
            <stop stop-color="#2B70F6" offset="0%"></stop>
            <stop stop-color="#5D6DFF" offset="100%"></stop>
        </linearGradient>
        <linearGradient x1="50%" y1="0%" x2="50%" y2="100%" id="linearGradient-10">
            <stop stop-color="#3680F7" offset="0%"></stop>
            <stop stop-color="#424BF1" offset="100%"></stop>
        </linearGradient>
        <linearGradient x1="50%" y1="0%" x2="50%" y2="100%" id="linearGradient-11">
            <stop stop-color="#3584F7" offset="0%"></stop>
            <stop stop-color="#424CF1" offset="100%"></stop>
        </linearGradient>
        <linearGradient x1="50%" y1="0%" x2="50%" y2="100%" id="linearGradient-12">
            <stop stop-color="#669DFF" offset="0%"></stop>
            <stop stop-color="#4F92F8" offset="100%"></stop>
        </linearGradient>
        <linearGradient x1="50%" y1="0%" x2="50%" y2="100%" id="linearGradient-13">
            <stop stop-color="#3584F7" offset="0%"></stop>
            <stop stop-color="#424BF1" offset="100%"></stop>
        </linearGradient>
        <linearGradient x1="50%" y1="0%" x2="50%" y2="100%" id="linearGradient-14">
            <stop stop-color="#3173F5" offset="0%"></stop>
            <stop stop-color="#3D40F3" offset="100%"></stop>
        </linearGradient>
        <linearGradient x1="50%" y1="0%" x2="50%" y2="100%" id="linearGradient-15">
            <stop stop-color="#4782F4" offset="0%"></stop>
            <stop stop-color="#354DF3" offset="100%"></stop>
        </linearGradient>
        <linearGradient x1="50%" y1="0%" x2="50%" y2="100%" id="linearGradient-16">
            <stop stop-color="#659BFF" offset="0%"></stop>
            <stop stop-color="#4D91F7" offset="100%"></stop>
        </linearGradient>
        <linearGradient x1="50%" y1="0%" x2="50%" y2="100%" id="linearGradient-17">
            <stop stop-color="#3584F7" offset="0%"></stop>
            <stop stop-color="#3C44F3" offset="100%"></stop>
        </linearGradient>
        <linearGradient x1="50%" y1="0%" x2="50%" y2="100%" id="linearGradient-18">
            <stop stop-color="#328EF6" offset="0%"></stop>
            <stop stop-color="#394EF2" offset="100%"></stop>
        </linearGradient>
        <linearGradient x1="39.3835187%" y1="-9.43434448%" x2="74.6185415%" y2="164.303281%" id="linearGradient-19">
            <stop stop-color="#428CF1" offset="0%"></stop>
            <stop stop-color="#3E40EE" offset="100%"></stop>
        </linearGradient>
        <linearGradient x1="116.670769%" y1="93.1507766%" x2="25.6528619%" y2="126.239818%" id="linearGradient-20">
            <stop stop-color="#428CF1" offset="0%"></stop>
            <stop stop-color="#3E40EE" offset="100%"></stop>
        </linearGradient>
        <linearGradient x1="50%" y1="0%" x2="57.1503288%" y2="134.000337%" id="linearGradient-21">
            <stop stop-color="#57A7F9" offset="0%"></stop>
            <stop stop-color="#4255F0" offset="100%"></stop>
        </linearGradient>
        <linearGradient x1="50%" y1="0%" x2="57.1503288%" y2="134.000337%" id="linearGradient-22">
            <stop stop-color="#71FFA4" offset="0%"></stop>
            <stop stop-color="#4463F2" offset="100%"></stop>
        </linearGradient>
        <linearGradient x1="50%" y1="0%" x2="35.6156081%" y2="100%" id="linearGradient-23">
            <stop stop-color="#71E4FF" offset="0%"></stop>
            <stop stop-color="#52AAFA" offset="100%"></stop>
        </linearGradient>
        <linearGradient x1="50%" y1="0%" x2="50%" y2="100%" id="linearGradient-24">
            <stop stop-color="#FFC007" offset="0%"></stop>
            <stop stop-color="#FFCC07" offset="100%"></stop>
        </linearGradient>
        <linearGradient x1="50%" y1="0%" x2="50%" y2="100%" id="linearGradient-25">
            <stop stop-color="#509DF9" offset="0%"></stop>
            <stop stop-color="#3E43EF" offset="100%"></stop>
        </linearGradient>
        <linearGradient x1="50%" y1="0%" x2="50%" y2="100%" id="linearGradient-26">
            <stop stop-color="#3B67F5" offset="0%"></stop>
            <stop stop-color="#6AB0F8" offset="100%"></stop>
        </linearGradient>
        <linearGradient x1="50%" y1="0%" x2="50%" y2="100%" id="linearGradient-27">
            <stop stop-color="#4F9AF9" offset="0%"></stop>
            <stop stop-color="#3C3CED" offset="100%"></stop>
        </linearGradient>
    </defs>
    <g id="Page-1" stroke="none" stroke-width="1" fill="none" fill-rule="evenodd">
        <g id="画板-copy-20">
            <rect fill="#F2F2F2" x="0" y="0" width="1240" height="768"></rect>
            <g id="banner内容" opacity="0.850818452" transform="translate(-497.000000, -77.000000)">
                <g id="banner背景" transform="translate(191.000000, 0.000000)">
                    <path d="M421.512431,911.353974 C544.255476,930.803015 608.215139,917.99465 736.045298,878.367083 C821.265405,851.948704 963.639728,812.891913 1163.16827,761.196708 L1153.32942,244.36365 L-1.13686838e-13,244.36365 L-1.13686838e-13,719.989169 C110.046379,823.862705 298.769385,891.904933 421.512431,911.353974 Z" id="Path-3" fill="url(#linearGradient-1)"></path>
                    <path d="M1.13686838e-13,720.630584 C40.9583261,760.627282 93.6595889,796.821762 158.103788,829.214024 C254.770087,877.802418 371.773174,901.064321 450.115156,896.057254 C664.815923,882.335098 875.813146,1032.74158 962.973684,952.093859 C1050.13422,871.446138 1487.83181,875.318115 1661.15789,896.057254 C1661.15789,831.816982 1661.15789,551.99952 1661.15789,56.6048667 L1.13686838e-13,56.6048667 L1.13686838e-13,720.630584 Z" id="Path-2" fill="url(#linearGradient-2)"></path>
                    <path d="M773.299876,926.365978 C923.35352,950.231268 1002.9744,959.964065 1159.24705,911.338355 C1263.42882,878.921215 1436.01313,878.921215 1677,911.338355 L1667.94776,107.923666 L258,107.923666 L258,691.548398 C392.531941,819.008264 623.246232,902.500687 773.299876,926.365978 Z" id="Path-3" fill="url(#linearGradient-3)"></path>
                    <path d="M258,692.335458 C308.071644,741.414116 372.499054,785.827195 451.28223,825.574695 C569.456993,885.195945 712.493525,913.739876 808.266771,907.595867 C1070.73893,890.757851 1184.25839,718.382254 1290.81234,619.422037 C1397.36629,520.461821 1456.05624,467.985523 1667.94776,493.433852 C1667.94776,414.606687 1667.94776,250.128736 1667.94776,0 L258,0 L258,692.335458 Z" id="Path-2" fill="url(#linearGradient-2)"></path>
                </g>
                <g id="房子" transform="translate(0.000000, 125.000000)">
                    <g id="Group-22" transform="translate(1148.771350, 0.000000)">
                        <g id="Group-15" transform="translate(216.672176, 212.217277)">
                            <rect id="Rectangle-9" fill="url(#linearGradient-4)" x="0" y="0" width="84.215978" height="141.751309" rx="6"></rect>
                            <polygon id="Rectangle-14" fill="#3F75F6" points="8.89605401 11.2219786 72.9476429 11.2219786 72.9476429 17.1282832 8.89605401 17.1282832"></polygon>
                            <polygon id="Rectangle-14" fill="#3F75F6" points="8.89605401 23.0345877 72.9476429 23.0345877 72.9476429 28.9408922 8.89605401 28.9408922"></polygon>
                            <polygon id="Rectangle-14" fill="#3F75F6" points="8.89605401 34.8471968 72.9476429 34.8471968 72.9476429 40.7535013 8.89605401 40.7535013"></polygon>
                            <polygon id="Rectangle-14" fill="#3F75F6" points="8.89605401 46.6598058 72.9476429 46.6598058 72.9476429 52.5661104 8.89605401 52.5661104"></polygon>
                            <polygon id="Rectangle-14" fill="#3F75F6" points="8.89605401 58.4724149 72.9476429 58.4724149 72.9476429 64.3787195 8.89605401 64.3787195"></polygon>
                            <polygon id="Rectangle-14" fill="#3F75F6" points="8.89605401 70.285024 72.9476429 70.285024 72.9476429 76.1913285 8.89605401 76.1913285"></polygon>
                            <polygon id="Rectangle-14" fill="#3F75F6" points="8.89605401 82.0976331 72.9476429 82.0976331 72.9476429 88.0039376 8.89605401 88.0039376"></polygon>
                            <polygon id="Rectangle-14" fill="#3F75F6" points="8.89605401 93.9102421 72.9476429 93.9102421 72.9476429 99.8165467 8.89605401 99.8165467"></polygon>
                            <polygon id="Rectangle-14" fill="#3F75F6" points="8.89605401 105.722851 72.9476429 105.722851 72.9476429 111.629156 8.89605401 111.629156"></polygon>
                            <polygon id="Rectangle-14" fill="#3F75F6" points="8.89605401 117.53546 72.9476429 117.53546 72.9476429 123.441765 8.89605401 123.441765"></polygon>
                        </g>
                        <g id="Group-20">
                            <g id="Group-19">
                                <polygon id="Path-31" fill="url(#linearGradient-5)" points="0.108674772 353.458198 0.108674772 61.378899 16.4422617 61.378899 16.4422617 32.7901636 30.0312326 32.7901636 30.0312326 0.382791637 38.2488951 0.382791637 38.2488951 32.7901636 48.4227035 32.7901636 48.4227035 19.3344576 58.8693549 19.3344576 58.8693549 32.7901636 68.9946065 32.7901636 68.9946065 353.458198"></polygon>
                                <polygon id="Rectangle-17" fill="#5895FA" points="7.10316804 170.451316 59.193067 170.451316 59.193067 176.390386 7.10316804 176.390386"></polygon>
                                <polygon id="Rectangle-17" fill="#5895FA" points="7.10316804 183.51727 59.193067 183.51727 59.193067 189.456341 7.10316804 189.456341"></polygon>
                                <polygon id="Rectangle-17" fill="#5895FA" points="7.10316804 197.177132 59.193067 197.177132 59.193067 203.116202 7.10316804 203.116202"></polygon>
                                <polygon id="Rectangle-17" fill="#5895FA" points="7.10316804 210.243087 59.193067 210.243087 59.193067 216.182157 7.10316804 216.182157"></polygon>
                                <polygon id="Rectangle-17" fill="#5895FA" points="7.10316804 223.902948 59.193067 223.902948 59.193067 229.842018 7.10316804 229.842018"></polygon>
                                <polygon id="Rectangle-17" fill="#5895FA" points="7.10316804 236.968903 59.193067 236.968903 59.193067 242.907973 7.10316804 242.907973"></polygon>
                                <polygon id="Rectangle-17" fill="#5895FA" points="7.10316804 250.628764 59.193067 250.628764 59.193067 256.567834 7.10316804 256.567834"></polygon>
                                <polygon id="Rectangle-17" fill="#5895FA" points="7.10316804 263.694719 59.193067 263.694719 59.193067 269.633789 7.10316804 269.633789"></polygon>
                                <polygon id="Rectangle-17" fill="#5895FA" points="7.10316804 277.35458 59.193067 277.35458 59.193067 283.293651 7.10316804 283.293651"></polygon>
                                <polygon id="Rectangle-17" fill="#5895FA" points="7.10316804 290.420535 59.193067 290.420535 59.193067 296.359605 7.10316804 296.359605"></polygon>
                                <polygon id="Rectangle-17" fill="#5895FA" points="7.10316804 304.080396 59.193067 304.080396 59.193067 310.019467 7.10316804 310.019467"></polygon>
                                <polygon id="Rectangle-17" fill="#5895FA" points="7.10316804 317.146351 59.193067 317.146351 59.193067 323.085421 7.10316804 323.085421"></polygon>
                                <polygon id="Rectangle-17" fill="#5895FA" points="7.10316804 330.806212 59.193067 330.806212 59.193067 336.745283 7.10316804 336.745283"></polygon>
                                <polygon id="Rectangle-16" fill="#5895FA" points="7.10316804 68.8932148 11.8386134 68.8932148 11.8386134 155.009733 7.10316804 155.009733"></polygon>
                                <polygon id="Rectangle-16" fill="#5895FA" points="18.9417815 68.8932148 23.6772268 68.8932148 23.6772268 155.009733 18.9417815 155.009733"></polygon>
                                <polygon id="Rectangle-16" fill="#5895FA" points="30.7803949 68.8932148 35.5158402 68.8932148 35.5158402 155.009733 30.7803949 155.009733"></polygon>
                                <polygon id="Rectangle-16" fill="#5895FA" points="42.6190083 68.8932148 47.3544536 68.8932148 47.3544536 155.009733 42.6190083 155.009733"></polygon>
                                <polygon id="Rectangle-16" fill="#5895FA" points="54.4576217 68.8932148 59.193067 68.8932148 59.193067 155.009733 54.4576217 155.009733"></polygon>
                            </g>
                            <polygon id="Path-32" fill="url(#linearGradient-6)" points="68.5321607 32.9734396 100.258257 32.9734396 100.258257 73.4774346 113.107315 73.4774346 108.940678 353.005807 68.5321607 353.005807"></polygon>
                        </g>
                        <polygon id="Path-35" fill="url(#linearGradient-7)" points="98.9333333 145.028796 144.761364 145.028796 144.761364 173.712851 156.985124 173.712851 156.985124 353.149215 98.9333333 353.149215"></polygon>
                        <polygon id="Path-35" fill="url(#linearGradient-8)" transform="translate(100.159780, 249.089005) scale(-1, 1) translate(-100.159780, -249.089005) " points="80.1278237 145.028796 107.967975 145.028796 107.967975 173.712851 120.191736 173.712851 120.191736 353.149215 80.1278237 353.149215"></polygon>
                        <g id="Group-16" opacity="0.675668025" transform="translate(175.790634, 112.253927)">
                            <polygon id="Path-38" fill="url(#linearGradient-9)" points="0.276041667 241.996755 0.276041667 17.1206791 11.7739756 0.286314553 21.9213585 17.1206791 21.9213585 241.996755"></polygon>
                            <polygon id="Rectangle-15" fill="#4193F7" points="4.08815427 20.2608282 9.92837466 20.2608282 9.92837466 26.2198953 4.08815427 26.2198953"></polygon>
                            <polygon id="Rectangle-15" fill="#4193F7" points="12.8484848 20.2608282 18.6887052 20.2608282 18.6887052 26.2198953 12.8484848 26.2198953"></polygon>
                            <polygon id="Rectangle-15" fill="#4193F7" points="4.08815427 29.1994288 9.92837466 29.1994288 9.92837466 35.158496 4.08815427 35.158496"></polygon>
                            <polygon id="Rectangle-15" fill="#4193F7" points="12.8484848 29.1994288 18.6887052 29.1994288 18.6887052 35.158496 12.8484848 35.158496"></polygon>
                            <polygon id="Path-39" fill="#669DFF" points="11.7520177 0.358038676 38.9204492 0.168762643 49.0512924 16.9379499 21.7726439 16.9379499"></polygon>
                            <polygon id="Rectangle-8" fill="url(#linearGradient-10)" points="21.6088154 16.8480402 49.0578512 16.8480402 49.0578512 241.983516 21.6088154 241.983516"></polygon>
                        </g>
                        <g id="Group-17" transform="translate(129.185675, 267.934555)">
                            <polygon id="Path-37" fill="url(#linearGradient-11)" points="19.3880833 0.973661599 43.4340606 0.973661599 63.2495365 24.8899508 63.2495365 86.3131255 19.3880833 86.3131255"></polygon>
                            <polygon id="Path-36" fill="url(#linearGradient-12)" points="0.454818883 86.215527 0.454818883 25.2849925 19.4932174 0.487992687 37.6265491 25.2849925 37.6265491 86.215527"></polygon>
                        </g>
                    </g>
                    <path d="M304.104933,189.905113 L842.802675,189.905113 C915.121932,195.627986 951.28156,227.057602 951.28156,284.193963 C951.28156,341.330323 915.121932,372.576316 842.802675,377.931941 L621.113122,377.931941 C586.663287,377.931941 569.438369,389.655325 569.438369,413.102092 C569.438369,436.548859 586.663287,449.248933 621.113122,451.202314 L1145.73717,451.202314 C1171.32221,452.508377 1184.11472,462.92211 1184.11472,482.443513 C1184.11472,501.964916 1171.32221,512.94535 1145.73717,515.384817 L626.969559,515.384817 C543.543532,515.384817 501.830518,481.290575 501.830518,413.102092 C501.830518,344.913609 543.543532,310.890681 626.969559,311.033309 L842.802675,311.033309 C875.319917,309.79785 891.578538,298.947002 891.578538,278.480765 C891.578538,258.014528 875.319917,247.719257 842.802675,247.594951 L304.104933,247.594951 C277.759392,247.594951 264.586622,237.613973 264.586622,217.652017 C264.586622,197.69006 277.759392,188.441092 304.104933,189.905113 Z" id="Path-40" stroke="#FFFFFF" stroke-width="2"></path>
                    <g id="Group-23" transform="translate(371.204408, 63.910995)">
                        <g id="Group-13" transform="translate(136.544353, 124.544503)">
                            <polygon id="Path-27" fill="url(#linearGradient-13)" points="0.0718307743 130.592004 0.0718307743 17.6387375 13.4439404 0.697485549 26.81605 17.6387375 26.81605 130.592004"></polygon>
                            <polygon id="Rectangle-13" fill="#6590FF" points="4.74546535 47.4568241 22.5409604 47.4568241 22.5409604 51.0160859 4.74546535 51.0160859"></polygon>
                            <polygon id="Rectangle-13" fill="#6590FF" points="4.74546535 56.3549786 22.5409604 56.3549786 22.5409604 59.9142404 4.74546535 59.9142404"></polygon>
                            <polygon id="Rectangle-13" fill="#6590FF" points="4.74546535 65.8463434 22.5409604 65.8463434 22.5409604 69.4056052 4.74546535 69.4056052"></polygon>
                            <polygon id="Rectangle-13" fill="#6590FF" points="4.74546535 74.7444979 22.5409604 74.7444979 22.5409604 78.3037597 4.74546535 78.3037597"></polygon>
                            <polygon id="Rectangle-13" fill="#6590FF" points="4.74546535 84.2358627 22.5409604 84.2358627 22.5409604 87.7951245 4.74546535 87.7951245"></polygon>
                            <polygon id="Rectangle-13" fill="#6590FF" points="4.74546535 93.1340172 22.5409604 93.1340172 22.5409604 96.693279 4.74546535 96.693279"></polygon>
                            <polygon id="Rectangle-13" fill="#6590FF" points="4.74546535 102.625382 22.5409604 102.625382 22.5409604 106.184644 4.74546535 106.184644"></polygon>
                            <polygon id="Rectangle-13" fill="#6590FF" points="4.74546535 111.523537 22.5409604 111.523537 22.5409604 115.082798 4.74546535 115.082798"></polygon>
                            <polygon id="Rectangle-13" fill="#6590FF" points="4.74546535 121.014901 22.5409604 121.014901 22.5409604 124.574163 4.74546535 124.574163"></polygon>
                            <polygon id="Rectangle-12" fill="#6590FF" points="4.15228218 23.1352017 10.677297 23.1352017 10.677297 29.660515 4.15228218 29.660515"></polygon>
                            <polygon id="Rectangle-12" fill="#6590FF" points="15.4227624 23.1352017 21.9477772 23.1352017 21.9477772 29.660515 15.4227624 29.660515"></polygon>
                            <polygon id="Rectangle-12" fill="#6590FF" points="4.15228218 33.8129871 10.677297 33.8129871 10.677297 40.3383004 4.15228218 40.3383004"></polygon>
                            <polygon id="Rectangle-12" fill="#6590FF" points="15.4227624 33.8129871 21.9477772 33.8129871 21.9477772 40.3383004 15.4227624 40.3383004"></polygon>
                            <polygon id="Path-28" fill="#5294F8" points="13.3558898 0.49125228 47.8549363 0.49125228 60.0991869 17.7146267 26.7592806 17.7146267"></polygon>
                            <polygon id="Rectangle-4" fill="url(#linearGradient-14)" points="26.6932426 17.6255583 59.9115 17.6255583 59.9115 130.656162 26.6932426 130.656162"></polygon>
                        </g>
                        <path d="M228.030854,33.5942408 L265.818182,33.5942408 C268.027321,33.5942408 269.818182,35.3851018 269.818182,37.5942408 L269.818182,251.108467 C269.818182,253.317606 268.027321,255.108467 265.818182,255.108467 L228.030854,255.108467 C225.821715,255.108467 224.030854,253.317606 224.030854,251.108467 L224.030854,37.5942408 C224.030854,35.3851018 225.821715,33.5942408 228.030854,33.5942408 Z" id="Rectangle-6" fill="url(#linearGradient-15)"></path>
                        <g id="Group-14" transform="translate(182.331680, 65.549738)">
                            <polygon id="Path-29" fill="url(#linearGradient-16)" points="0.0746432662 16.7365077 9.6989594 0.393322434 19.7792992 16.7365077 19.7792992 189.529202 0.0746432662 189.529202"></polygon>
                            <polygon id="Path-30" fill="#6CA0FF" points="9.6435601 0.349378224 40.1723644 0.349378224 53.0922099 16.6548556 19.7234626 16.6548556"></polygon>
                            <polygon id="Rectangle-5" fill="url(#linearGradient-17)" points="19.7058223 16.6332461 53.1460055 16.6332461 53.1460055 189.544866 19.7058223 189.544866"></polygon>
                        </g>
                        <g id="Group-15" transform="translate(246.924518, 148.306283)">
                            <rect id="Rectangle-9" fill="url(#linearGradient-18)" x="0" y="0" width="84.215978" height="141.751309" rx="6"></rect>
                            <polygon id="Rectangle-14" fill="#499CFE" points="8.89605401 11.2219786 72.9476429 11.2219786 72.9476429 17.1282832 8.89605401 17.1282832"></polygon>
                            <polygon id="Rectangle-14" fill="#499CFE" points="8.89605401 23.0345877 72.9476429 23.0345877 72.9476429 28.9408922 8.89605401 28.9408922"></polygon>
                            <polygon id="Rectangle-14" fill="#499CFE" points="8.89605401 34.8471968 72.9476429 34.8471968 72.9476429 40.7535013 8.89605401 40.7535013"></polygon>
                            <polygon id="Rectangle-14" fill="#499CFE" points="8.89605401 46.6598058 72.9476429 46.6598058 72.9476429 52.5661104 8.89605401 52.5661104"></polygon>
                            <polygon id="Rectangle-14" fill="#499CFE" points="8.89605401 58.4724149 72.9476429 58.4724149 72.9476429 64.3787195 8.89605401 64.3787195"></polygon>
                            <polygon id="Rectangle-14" fill="#499CFE" points="8.89605401 70.285024 72.9476429 70.285024 72.9476429 76.1913285 8.89605401 76.1913285"></polygon>
                            <polygon id="Rectangle-14" fill="#499CFE" points="8.89605401 82.0976331 72.9476429 82.0976331 72.9476429 88.0039376 8.89605401 88.0039376"></polygon>
                        </g>
                    </g>
                    <path d="M347.776763,338.910399 C310.813083,331.488402 335.389261,283.878748 373.109186,273.546303 C410.82911,263.213859 418.81779,308.918591 465.087006,314.509606 C511.356222,320.100621 554.925287,292.480277 592.466311,300.052673 C630.007334,307.625069 621.876816,325.020151 621.876816,333.114611 C621.876816,342.28023 586.996837,362.572151 530.996083,360.255067 C498.146284,358.895875 458.51091,340.493955 427.326648,338.910399 C390.103477,337.020183 359.094672,341.18294 347.776763,338.910399 Z" id="Path-62" fill="url(#linearGradient-19)"></path>
                    <path d="M258.54723,367.082038 C211.598182,348.875769 205.146494,267.123566 269.897078,267.123566 C334.647661,267.123566 426.20825,330.080116 470.799607,338.630212 C515.390963,347.180308 557.380083,304.941715 593.559756,316.521852 C629.73943,328.101988 621.903748,354.703532 621.903748,367.082038 C621.903748,381.098622 588.288622,412.130176 534.318623,408.586759 C502.660056,406.508206 464.461979,378.366948 434.408552,375.945285 C398.535204,373.05466 318.139563,390.191219 258.54723,367.082038 Z" id="Path-62" fill="url(#linearGradient-20)" opacity="0.551177536"></path>
                    <path d="M1049.69251,368.806294 C1031.27636,357.461162 1016.4852,297.863248 1068.10867,286.940175 C1119.73214,276.017103 1168.84189,317.79163 1183.66144,332.863336 C1198.481,347.935041 1235.13355,359.624428 1316.69306,328.316206 C1398.25256,297.007984 1468.75019,320.707026 1478.19082,332.863336 C1487.63145,345.019645 1487.63855,360.041586 1457.87386,373.353423 C1428.10917,386.66526 1343.77925,396.888498 1250.97301,398.154927 C1158.16677,399.421357 1068.10867,380.151426 1049.69251,368.806294 Z" id="Path-41" fill="url(#linearGradient-21)"></path>
                    <path d="M999.938819,380.576226 C981.522662,353.670643 973.097457,301.74013 1021.50371,292.675777 C1069.90996,283.611425 1117.05683,325.155939 1131.89465,338.423691 C1146.73246,351.691443 1168.87608,355.691544 1192.41282,355.691544 C1215.94956,355.691544 1247.16338,335.485639 1299.53954,308.0641 C1351.9157,280.642562 1438.99746,296.984475 1431.96221,338.598938 C1427.27204,366.341913 1405.14273,381.611665 1365.57427,384.408196 C1305.83922,387.297296 1248.11873,386.019972 1192.41282,380.576226 C1108.85394,372.410606 1018.35498,407.481808 999.938819,380.576226 Z" id="Path-41" fill="url(#linearGradient-22)" opacity="0.493376359"></path>
                    <path d="M28.1041351,465.831238 C-6.92109321,414.660183 -22.9447806,315.894836 69.1178647,298.655571 C161.18051,281.416306 208.602729,434.799049 222.929244,465.831238 C237.255758,496.863427 261.463812,522.013103 308.434137,518.386605 C355.404461,514.760107 412.094974,495.290787 511.045353,424.275652 C609.995731,353.260517 744.114334,413.071801 744.114334,487.829429 C744.114334,562.587058 682.018518,585.42954 625.990543,599.966506 C569.962569,614.503473 456.106938,635.795321 297.188404,620.265333 C138.269869,604.735345 63.1293634,517.002293 28.1041351,465.831238 Z" id="Path-41" fill="url(#linearGradient-23)" opacity="0.283401268"></path>
                    <path d="M594.226236,378.419857 C560.206479,357.441448 567.384874,299.583761 615.791128,290.519409 C664.197382,281.455057 711.344246,322.99957 726.182064,336.267323 C741.019881,349.535075 763.163496,353.535176 786.700236,353.535176 C810.236976,353.535176 841.450801,333.32927 893.826962,305.907732 C946.203122,278.486194 1033.28488,294.828107 1026.24963,336.442569 C1021.55946,364.185544 999.430143,379.455297 959.861682,382.251828 C900.126634,385.140927 842.406152,383.863604 786.700236,378.419857 C703.141362,370.254238 628.245992,399.398267 594.226236,378.419857 Z" id="Path-41" fill="url(#linearGradient-22)" opacity="0.493376359"></path>
                </g>
                <g id="云朵" transform="translate(514.000000, 126.000000)" fill="#A0BAFF">
                    <path d="M789.26744,19.3504711 C783.565629,19.3504711 783.32446,11.7124829 790.336729,11.7124829 C793.984489,11.7124829 796.832466,9.41735795 798.880662,4.82710812 C801.442485,0.991069686 804.859046,-0.558632318 809.130347,0.178002111 C815.537299,1.28295375 814.257985,8.20747718 817.529739,8.20747718 C820.801492,8.20747718 822.831465,5.28331014 827.187681,6.74539366 C831.543897,8.20747718 831.324479,12.6038946 832.547703,13.5604606 C833.770927,14.5170265 836.571808,13.9214067 837.500453,14.8100226 C839.156212,16.3944107 838.506851,19.3504711 835.250873,19.3504711 C827.627695,19.3504711 791.302204,19.3504711 789.26744,19.3504711 Z" id="Path-48"></path>
                    <path d="M5.14764363,97.7770411 C-1.77767629,97.7770411 -2.07059599,88.500075 6.44638359,88.500075 C10.8768878,88.500075 14.3359913,85.7124566 16.8236942,80.1372199 C19.9352385,75.4780351 24.0849342,73.5957944 29.2727812,74.4904976 C37.0545518,75.8325524 35.5007195,84.2429567 39.474534,84.2429567 C43.4483485,84.2429567 45.9139176,80.6913149 51.2049008,82.4671358 C56.495884,84.2429567 56.2293834,89.582768 57.7150895,90.7445961 C59.2007957,91.9064243 62.6026965,91.1829949 63.7306125,92.2622923 C65.7416687,94.1866621 64.9529663,97.7770411 60.9983119,97.7770411 C51.7393338,97.7770411 7.6190323,97.7770411 5.14764363,97.7770411 Z" id="Path-48" transform="translate(32.398810, 86.025670) scale(-1, 1) translate(-32.398810, -86.025670) "></path>
                </g>
                <g id="左边树木" transform="translate(638.962573, 480.132774) rotate(1.000000) translate(-638.962573, -480.132774) translate(607.843396, 431.535703)">
                    <path d="M18.3015631,84.3434468 C10.6825578,81.8082244 5.61935895,78.2531312 3.11196662,73.6781671 C-0.649121872,66.815721 -2.55488631,52.7147797 10.1684478,52.7147797 C22.891782,52.7147797 8.15875371,43.9329646 10.1684478,38.282214 C11.5082439,34.515047 14.2192823,31.7031493 18.3015631,29.846521 C18.2342871,12.0908035 21.036239,2.32477512 26.7074186,0.548435729 C35.214188,-2.11607336 37.6606683,5.02536371 37.6606683,19.8563391 C37.6606683,34.6873145 46.4319958,17.0260179 51.1067642,24.1904844 C55.7815326,31.354951 44.0304199,29.6844838 46.4319958,35.4219545 C48.8335716,41.1594251 54.1588787,39.0687087 55.2442343,43.7348812 C56.3295899,48.4010536 49.193394,49.826068 51.1067642,55.5197685 C53.0201344,61.213469 62.8815257,58.9428395 61.3999825,68.0777357 C59.9184393,77.2126319 54.9024472,80.3578323 46.4319958,84.3434468 C40.7850281,87.0005231 31.4082172,87.0005231 18.3015631,84.3434468 Z" id="Path-49" fill="url(#linearGradient-24)"></path>
                    <path d="M29.6741427,39.2053611 L29.6741427,96.5349111" id="Line" stroke="#FFFFFF" stroke-width="2" stroke-linecap="square"></path>
                    <path d="M31.0705729,48.0486756 L40.1473695,42.1531326" id="Line-2" stroke="#FFFFFF" stroke-width="2" stroke-linecap="square"></path>
                    <path d="M28.9759276,69.8621848 L17.8044856,58.6606531" id="Line-3" stroke="#FFFFFF" stroke-width="2" stroke-linecap="square"></path>
                    <path d="M30.3723578,79.2950536 L47.8277359,66.324859" id="Line-4" stroke="#FFFFFF" stroke-width="2" stroke-linecap="square"></path>
                </g>
                <g id="中间电脑" transform="translate(690.000000, 280.000000)">
                    <path d="M6,0 L374,0 C377.313708,-6.08718376e-16 380,2.6862915 380,6 L380,263 C380,266.313708 377.313708,269 374,269 L6,269 C2.6862915,269 1.29399067e-15,266.313708 8.8817842e-16,263 L-1.77635684e-15,6 C-2.18216909e-15,2.6862915 2.6862915,6.08718376e-16 6,0 Z" id="Rectangle-21" fill="url(#linearGradient-25)"></path>
                    <ellipse id="Oval-2" fill="#FFC107" cx="15.5268817" cy="13.1219512" rx="3.2688172" ry="3.2804878"></ellipse>
                    <ellipse id="Oval-2" fill="#FFFFFF" cx="30.2365591" cy="13.1219512" rx="3.2688172" ry="3.2804878"></ellipse>
                    <ellipse id="Oval-2" fill="#FFFFFF" cx="44.9462366" cy="13.1219512" rx="3.2688172" ry="3.2804878"></ellipse>
                    <polygon id="Rectangle-22" fill="#E7F6FE" points="12.2580645 25.4237805 368.55914 25.4237805 368.55914 258.338415 12.2580645 258.338415"></polygon>
                    <rect id="Rectangle-27" fill="#6AB0F8" x="18.7956989" y="189.448171" width="147.096774" height="62.3292683"></rect>
                    <polygon id="Rectangle-27" fill="#FFFFFF" points="172.430108 189.448171 362.021505 189.448171 362.021505 251.777439 172.430108 251.777439"></polygon>
                    <polygon id="Rectangle-22" fill="#FFFFFF" points="18.7956989 31.9847561 224.731183 31.9847561 224.731183 182.887195 18.7956989 182.887195"></polygon>
                    <g id="Group-35" transform="translate(25.187758, 56.177056)">
                        <rect id="Rectangle-29" fill="#E1E1E1" x="44.2746071" y="2.87172424" width="138.924731" height="4.92073171"></rect>
                        <rect id="Rectangle-29" fill="#E1E1E1" x="44.2746071" y="23.101399" width="138.924731" height="4.92073171"></rect>
                        <rect id="Rectangle-29" fill="#E1E1E1" x="44.2746071" y="43.3310738" width="138.924731" height="4.92073171"></rect>
                        <rect id="Rectangle-29" fill="#E1E1E1" x="44.2746071" y="63.5607486" width="138.924731" height="4.92073171"></rect>
                        <polygon id="Rectangle-29" fill="#66ADF8" points="44.2746071 2.87172424 139.88751 2.87172424 139.88751 7.79245594 44.2746071 7.79245594"></polygon>
                        <polygon id="Rectangle-29" fill="#66ADF8" points="44.2746071 23.101399 150.511166 23.101399 150.511166 28.0221307 44.2746071 28.0221307"></polygon>
                        <polygon id="Rectangle-29" fill="#66ADF8" points="44.2746071 43.3310738 109.650951 43.3310738 109.650951 48.2518055 44.2746071 48.2518055"></polygon>
                        <polygon id="Rectangle-29" fill="#66ADF8" points="44.2746071 63.5607486 166.855252 63.5607486 166.855252 68.4814803 44.2746071 68.4814803"></polygon>
                        <text id="76-%" font-family="PingFangSC-Medium, PingFang SC" font-size="10" font-weight="400" line-spacing="10" letter-spacing="0.1333333" fill="#4A4A4A">
                            <tspan x="0" y="12.184651">76</tspan>
                            <tspan x="11.6326666" y="10.280651" font-size="12"> </tspan>
                            <tspan x="16.1939999" y="12.704651" font-size="6">%</tspan>
                        </text>
                        <text id="84-%" font-family="PingFangSC-Medium, PingFang SC" font-size="10" font-weight="400" line-spacing="10" letter-spacing="0.1333333" fill="#4A4A4A">
                            <tspan x="0" y="32.1675081">84</tspan>
                            <tspan x="12.1226666" y="30.2635081" font-size="12"> </tspan>
                            <tspan x="16.6839999" y="32.6875081" font-size="6">%</tspan>
                        </text>
                        <text id="56-%" font-family="PingFangSC-Medium, PingFang SC" font-size="10" font-weight="400" line-spacing="10" letter-spacing="0.1333333" fill="#4A4A4A">
                            <tspan x="0" y="52.1503653">56</tspan>
                            <tspan x="12.1226666" y="50.2463653" font-size="12"> </tspan>
                            <tspan x="16.6839999" y="52.6703653" font-size="6">%</tspan>
                        </text>
                        <text id="86-%" font-family="PingFangSC-Medium, PingFang SC" font-size="10" font-weight="400" line-spacing="10" letter-spacing="0.1333333" fill="#4A4A4A">
                            <tspan x="0" y="72.1332224">86</tspan>
                            <tspan x="12.1226666" y="70.2292224" font-size="12"> </tspan>
                            <tspan x="16.6839999" y="72.6532224" font-size="6">%</tspan>
                        </text>
                    </g>
                    <polygon id="Rectangle-22" fill="url(#linearGradient-26)" points="231.268817 32.804878 362.021505 32.804878 362.021505 183.707317 231.268817 183.707317"></polygon>
                    <rect id="Rectangle-28" fill="#4567F3" x="163" y="154" width="49.0322581" height="16.402439" rx="8.20121951"></rect>
                    <text id="More" font-family="PingFangSC-Medium, PingFang SC" font-size="12" font-weight="400" letter-spacing="0.1333333" fill="#FFFFFF">
                        <tspan x="172" y="167">More</tspan>
                    </text>
                </g>
                <g id="数据条" transform="translate(911.000000, 443.000000)">
                    <path d="M100.115385,0 L117.153846,0 C119.362985,-4.05812251e-16 121.153846,1.790861 121.153846,4 L121.153846,172 C121.153846,174.209139 119.362985,176 117.153846,176 L100.115385,176 C97.9062456,176 96.1153846,174.209139 96.1153846,172 L96.1153846,4 C96.1153846,1.790861 97.9062456,4.05812251e-16 100.115385,0 Z" id="Rectangle-26" fill="#0C48CA"></path>
                    <path d="M104.961538,-4.4408921e-16 L122,-4.4408921e-16 C124.209139,1.11220812e-15 126,1.790861 126,4 L126,172 C126,174.209139 124.209139,176 122,176 L104.961538,176 C102.752399,176 100.961538,174.209139 100.961538,172 L100.961538,4 C100.961538,1.790861 102.752399,-3.82769592e-17 104.961538,-4.4408921e-16 Z" id="Rectangle-26" fill="url(#linearGradient-27)"></path>
                    <rect id="Rectangle-26" fill="#0C48CA" x="0" y="55.9252336" width="25.0384615" height="120.074766" rx="4"></rect>
                    <rect id="Rectangle-26" fill="url(#linearGradient-27)" x="4.84615385" y="55.9252336" width="25.0384615" height="120.074766" rx="4"></rect>
                    <rect id="Rectangle-26" fill="#0C48CA" x="48.4615385" y="55.9252336" width="25.0384615" height="120.074766" rx="4"></rect>
                    <rect id="Rectangle-26" fill="url(#linearGradient-27)" x="53.3076923" y="55.9252336" width="25.0384615" height="120.074766" rx="4"></rect>
                </g>
                <g id="数据条人物" transform="translate(987.000000, 383.000000)">
                    <polygon id="Path-23" fill="#F6C5C1" transform="translate(7.478588, 79.204775) scale(-1, 1) rotate(17.000000) translate(-7.478588, -79.204775) " points="6.55252874 81.0941796 8.36899145 81.0755012 8.40464632 77.3153704 6.5881836 77.3340488"></polygon>
                    <polygon id="Path-24" fill="#0A2048" transform="translate(6.180663, 82.877450) scale(-1, 1) rotate(-345.000000) translate(-6.180663, -82.877450) " points="2.4704923 81.4781888 4.40861926 81.4607841 9.91528933 83.3412602 9.90759574 84.2271107 2.44603603 84.2941168"></polygon>
                    <path d="M5.68892045,77.8687789 C0.0655399522,67.551435 -1.15639533,60.3059146 2.02311462,56.1322177 C5.20262456,51.9585209 14.9588305,47.6565608 31.2917325,43.2263374 L38.9035866,53.0279225 C24.4277559,55.4914427 15.2471913,57.4889939 11.361893,59.0205761 C7.47659473,60.5521584 6.44666566,66.4078897 8.27210582,76.5877701 L5.68892045,77.8687789 Z" id="Path-76" stroke="#FFFFFF" stroke-width="2"></path>
                    <path d="M45.8000832,58.0551592 C45.3139789,58.7282644 33.6867407,64.0640576 27.4484739,61.6519147 C21.210207,59.2397718 19.0989184,62.6438362 18.3021171,67.8635767 C17.7709163,71.3434038 17.5053158,75.6001265 17.5053158,80.6337449 L14.3727388,80.6337449 C10.4784989,72.1202994 9.08150037,65.7930227 10.1817434,61.6519147 C11.2819864,57.5108067 19.1268015,51.0918557 33.7161886,42.3950617 C42.0961878,52.3863899 46.1241527,57.6064224 45.8000832,58.0551592 Z" id="Path-75" fill="#FFC107"></path>
                    <polygon id="Path-23" fill="#F6C5C1" transform="translate(16.478588, 81.698602) scale(-1, 1) rotate(17.000000) translate(-16.478588, -81.698602) " points="15.5525287 83.5880068 17.3689915 83.5693284 17.4046463 79.8091976 15.5881836 79.827876"></polygon>
                    <polygon id="Path-24" fill="#0A2048" transform="translate(15.180663, 85.371278) scale(-1, 1) rotate(-345.000000) translate(-15.180663, -85.371278) " points="11.4704923 83.972016 13.4086193 83.9546112 18.9152893 85.8350873 18.9075957 86.7209378 11.446036 86.787944"></polygon>
                    <path d="M39.2846271,25.0633157 C42.6313796,25.0633157 43.9668857,31.1180435 41.2934126,34.6030695 C38.6199396,38.0880956 30.4998048,35.7309193 28.4186346,34.6030695 C26.3374644,33.4752197 21.5669885,34.6845531 22.2272531,29.3083038 C22.6674295,25.7241376 25.2972811,22.050725 30.1168079,18.2880658 L31.4194068,18.944441 C29.6941666,21.8788239 28.8315464,23.9184488 28.8315464,25.0633157 C28.8315464,26.7806161 27.4408927,29.3083038 30.1168079,29.3083038 C32.7927231,29.3083038 35.9378745,25.0633157 39.2846271,25.0633157 Z" id="Path-74" fill="#0820BD"></path>
                    <path d="M24.5418472,44.0843461 C28.0474367,34.684218 30.919495,28.2986763 33.1580221,24.927721 C36.5158126,19.871288 36.7430999,19.8766059 38.8674782,18.5484613 C40.9918566,17.2203167 43.3097538,16.9708188 45.5536203,18.5484613 C46.9476316,19.5285783 50.4047211,22.8419907 52.0592152,26.557798 C54.8109908,32.7379758 56.4657915,43.2825307 53.8929332,49.9252508 C52.6704545,53.0815008 49.8906836,56.9137035 45.5536203,61.4218589 C38.0033829,58.9352281 32.5715695,55.8744936 29.2581799,52.2396557 C27.7768155,50.6145767 26.2047046,47.8961402 24.5418472,44.0843461 Z" id="Path-72" stroke="#FFFFFF" stroke-width="2"></path>
                    <path d="M45.8283024,28.5786455 C46.9290753,26.4090832 49.7803273,27.8530145 51.1699638,28.5786455 C52.5596004,29.3042765 52.7708007,34.5620306 51.619475,38.9594911 C50.4681493,43.3569516 48.9694602,53.5409754 38.7904083,47.8275784 C32.0043737,44.0186471 27.4799644,39.093242 25.2171803,33.051363 L27.0239702,32.2151813 C36.8651021,39.8483583 42.5691059,43.3355694 44.1359816,42.6768147 C46.4862952,41.6886827 44.7275296,30.7482078 45.8283024,28.5786455 Z" id="Path-73" fill="#4D8EF7"></path>
                    <path d="M37.1347095,8.03176223 C36.2797004,10.475994 35.8521958,11.905571 35.8521958,12.3204933 C35.8521958,12.7354156 36.2797004,12.8992008 37.1347095,12.811849 C37.1347095,13.5692535 37.1347095,14.1477456 37.1347095,14.5473251 C37.1347095,15.1466944 37.5853815,16.5059679 38.9594452,15.9075883 C39.8754876,15.5086685 40.4178538,15.156029 40.5865437,14.8496699 C41.127774,16.442712 41.127774,17.5161428 40.5865437,18.0699623 C40.0453134,18.6237819 39.5029472,19.3855049 38.9594452,20.3551314 L41.2757179,21.6131687 L44.0843796,21.0615609 L44.0843796,18.0699623 C43.6246462,15.9231007 43.6246462,14.5879474 44.0843796,14.0645024 C44.7739797,13.2793349 45.3664651,10.1019502 44.7254223,10.1019502 C44.2980605,10.1019502 43.8545129,10.1019502 43.3947795,10.1019502 L42.0236721,11.1803943 L42.0236721,8.86293386 L39.599636,7.48148148 L37.1347095,8.03176223 Z" id="Path-63" fill="#F6C5C1"></path>
                    <path d="M35.1818182,7.98458215 C35.1818182,9.43834832 35.8243898,9.67393175 37.1095331,8.69133247 L39.2058061,8.69133247 L40.7000862,9.77264242 C40.8102406,11.0814204 41.0925084,11.8386529 41.5468895,12.0443399 C42.0012705,12.2500268 42.9102055,12.032022 44.2736942,11.3903254 C44.8223512,12.1620283 46.3002486,13.0758155 48.7073864,14.1316872 C52.318093,15.7154948 52.318093,13.2646926 56.2236328,14.1316872 C60.0509238,14.9813113 59.865981,18.4698973 62.7003729,20.249357 C66.7484185,22.7907606 76.3218217,21.9638632 78.7204368,17.9219473 C81.1190518,13.8800315 81.8253729,8.69133247 77.1623757,3.54103974 C74.0537109,0.107511252 69.2330433,-0.243994985 62.7003729,2.48652103 C58.3825462,3.1895335 54.9217862,3.54103974 52.318093,3.54103974 C48.4125533,3.54103974 47.0318714,2.48652103 42.9793146,2.48652103 C40.2776101,2.48652103 38.3210163,2.83802726 37.1095331,3.54103974 C35.8243898,5.04963518 35.1818182,6.53081599 35.1818182,7.98458215 Z" id="Path-71" fill="#000000"></path>
                    <g id="Group-33" transform="translate(9.000000, 17.456790)">
                        <path d="M3.42308625,1.51378331 L12.9049967,1.55066479 C13.4546106,1.55280261 13.8994849,1.99809801 13.9011027,2.54771377 L13.9444354,17.2693532 C13.946061,17.8216356 13.4996656,18.2706667 12.9473832,18.2722923 C12.9451055,18.272299 12.9428278,18.272298 12.9405501,18.2722891 L3.4586397,18.2354076 C2.90902572,18.2332698 2.46415145,17.7879744 2.46253367,17.2383586 L2.41920094,2.51671921 C2.41757531,1.96443685 2.86397079,1.51540571 3.41625315,1.51378008 C3.41853085,1.51377337 3.42080856,1.51377445 3.42308625,1.51378331 Z" id="Rectangle-25" fill="#000000" transform="translate(8.181818, 9.893036) rotate(-14.000000) translate(-8.181818, -9.893036) "></path>
                        <ellipse id="Oval-6" fill="#FFFFFF" transform="translate(9.630055, 16.640430) rotate(-14.000000) translate(-9.630055, -16.640430) " cx="9.63005525" cy="16.6404297" rx="1" ry="1"></ellipse>
                        <polygon id="Rectangle-25" fill="#FFFFFF" transform="translate(8.191534, 9.066175) rotate(-14.000000) translate(-8.191534, -9.066175) " points="3.78392952 3.02416932 12.567719 3.07395917 12.599138 15.1081801 3.81534852 15.0583903"></polygon>
                    </g>
                    <path d="M21.2490253,29.9479698 C21.6239751,29.9543924 22.5979457,29.9710756 24.1709372,29.9980195 C26.5304243,30.0384354 26.5325739,30.1661806 26.5552014,31.5108666 C26.5702863,32.4073239 24.8173625,32.8253974 21.2964298,32.765087 L21.2490253,29.9479698 Z" id="Path-20" fill="#F6C5C1" transform="translate(23.902162, 31.359380) scale(-1, 1) rotate(-37.000000) translate(-23.902162, -31.359380) "></path>
                    <path d="M29.6790351,15.7284407 C30.0547104,15.7219685 31.0305653,15.7051562 32.6066,15.6780037 C34.9706521,15.6372751 34.9684176,15.7613109 34.9448962,17.0669508 C34.9292154,17.9373774 33.1575026,18.4029792 29.629758,18.4637562 L29.6790351,15.7284407 Z" id="Path-20" fill="#F6C5C1" transform="translate(32.289390, 17.067742) scale(-1, 1) rotate(-133.000000) translate(-32.289390, -17.067742) "></path>
                </g>
                <g id="中间人物" transform="translate(645.000000, 488.000000)">
                    <path d="M37.2216593,66.0119495 L57.2872634,68.2641607 C59.6857716,77.9366323 59.6857716,86.3634831 57.2872634,93.5447131 C54.8887552,100.725943 48.9471977,109.901867 39.462591,121.072485 C37.9686366,121.1114 37.2216593,120.92277 37.2216593,120.506595 C37.2216593,119.882332 43.5504614,108.5523 43.5504614,101.048507 C43.5504614,96.0459776 41.4408607,84.3671252 37.2216593,66.0119495 Z" id="Path-69" fill="#FFC107"></path>
                    <path d="M40.0955675,41.9497906 C43.417389,37.6540865 50.7289626,31.5959951 52.7089973,31.5959951 C54.689032,31.5959951 58.0295443,33.448214 59.5402176,39.1912094 C61.0508909,44.9342047 64.4611369,56.9052338 62.0526422,70.5135296 C59.6441476,84.1218254 60.3763514,82.1753903 57.9678568,84.2976954 C56.6391218,85.4685434 49.1031196,86.2943448 42.3381214,85.080736 C36.840733,84.0945304 28.2164844,79.221031 26.063773,76.784639 C26.063773,76.784639 27.0006782,66.3769862 30.6003743,57.1300214 C33.2503107,50.3228166 36.7737461,46.2454947 40.0955675,41.9497906 Z" id="Path-66" stroke="#FFFFFF" stroke-width="2"></path>
                    <path d="M54.479513,46.4981857 C53.8100343,48.7860368 55.4973085,51.2622548 58.2655661,51.2622548 C61.0338238,51.2622548 62.4485021,50.5297765 64.118021,48.1751897 C65.7875399,45.8206029 73.4066456,34.3377542 74.2761322,32.0649725 C74.85579,30.5497847 76.1299928,22.854726 78.0987404,8.9797965 L75.9378179,8.9797965 C73.2317038,19.8308087 71.3016,26.2178832 70.1475065,28.14102 C68.4163664,31.0257252 55.1489916,44.2103347 54.479513,46.4981857 Z" id="Path-67" fill="#051B32"></path>
                    <path d="M74.2295544,4.87251042 C74.6794632,4.87284828 75.8481473,4.87372591 77.7356069,4.87514331 C80.5667964,4.8772694 80.5669715,5.02489221 80.5688145,6.57881647 C80.5700432,7.61476597 78.4582436,8.1311544 74.2334156,8.12798174 L74.2295544,4.87251042 Z" id="Path-20" fill="#F6C5C1" transform="translate(77.399185, 6.500253) rotate(-80.000000) translate(-77.399185, -6.500253) "></path>
                    <path d="M47.5458884,38.3596259 C49.5753732,39.3741027 51.0838668,39.6887054 52.0713689,39.3034337 C53.5526222,38.7255263 62.0526105,26.630903 62.0526105,26.630903 C62.0526105,26.630903 65.1831843,19.9096351 71.4443319,6.46709916 L69.3504298,5.04654457 C64.214185,13.214016 60.4599977,18.2804813 58.0878681,20.2459406 C54.5296737,23.1941295 45.7773275,33.5453448 45.7773275,35.4060561 C45.7773275,36.6465303 46.3668478,37.6310536 47.5458884,38.3596259 Z" id="Path-68" fill="#4D8EF7"></path>
                    <path d="M68.5670076,1.94694435 C69.0124616,1.9461196 70.1695741,1.94397721 72.0383451,1.94051718 C74.8415016,1.93532714 74.8410723,2.08121167 74.8365531,3.61683823 C74.8335403,4.64058928 72.7405359,5.1563372 68.5575399,5.16408201 L68.5670076,1.94694435 Z" id="Path-20" fill="#F6C5C1" transform="translate(71.697219, 3.552236) scale(-1, 1) rotate(-119.000000) translate(-71.697219, -3.552236) "></path>
                    <polygon id="Path-23" fill="#FFDFDD" transform="translate(37.815210, 122.531881) rotate(13.000000) translate(-37.815210, -122.531881) " points="36.7439546 124.763641 38.8825909 124.76018 38.8864659 120.30012 36.7478297 120.303581"></polygon>
                    <polygon id="Path-24" fill="#0A2048" transform="translate(39.907021, 124.541991) rotate(18.000000) translate(-39.907021, -124.541991) " points="35.5653622 122.878411 37.8228737 122.874062 44.2533279 125.145129 44.2518654 126.193174 35.5607133 126.20992"></polygon>
                    <polygon id="Path-23" fill="#FFDFDD" transform="translate(5.619896, 110.537337) rotate(60.000000) translate(-5.619896, -110.537337) " points="4.53696907 112.709687 6.69261244 112.704242 6.70282197 108.364987 4.54717859 108.370432"></polygon>
                    <polygon id="Path-24" fill="#0A2048" transform="translate(3.770358, 114.977205) rotate(60.000000) translate(-3.770358, -114.977205) " points="-0.661592576 113.354926 1.64490783 113.35032 8.21171474 115.564216 8.20875594 116.586356 -0.670997991 116.60409"></polygon>
                    <path d="M31.269083,71.0655364 C30.3554103,73.2989264 29.738058,75.355596 29.4170259,77.2355454 C28.9354777,80.0554694 26.6188459,93.0372669 25.1646148,95.4602211 C23.313186,98.5449629 17.1921497,102.918017 6.801506,108.579384 L7.47240947,111.244347 C16.4150024,110.535174 23.320327,109.222304 28.1883831,107.305736 C35.4904672,104.430884 41.1412457,102.0905 45.4273398,92.8946126 C48.2847358,86.7640209 50.4864712,81.0032829 52.0325458,75.6123987 L31.269083,71.0655364 Z" id="Path-70" stroke="#FFFFFF" stroke-width="2"></path>
                    <path d="M53.3578603,21.7628653 C54.1046454,22.7228256 54.5886502,23.4877464 54.8098746,24.0576277 C55.1417113,24.9124495 55.6165493,25.0947613 56.0638871,25.0947613 C56.5112248,25.0947613 57.1848505,26.0299832 57.1848505,26.8030605 C57.1848505,27.5761378 57.2039698,27.9378036 56.341247,28.6116581 C55.7660984,29.0608945 55.255641,29.3304183 54.8098746,29.4202298 C54.2914727,29.5765482 54.0322717,29.9859879 54.0322717,30.6485488 C54.0322717,31.3111097 54.5188956,32.5099397 55.4921433,34.2450389 L50.432617,34.5459341 C51.2967405,33.3811379 51.6981572,32.5657542 51.636867,32.099783 C51.5755768,31.6338117 50.8899034,30.2880746 49.5798466,28.0625715 C50.1483602,24.2143047 50.432617,22.2901712 50.432617,22.2901712 C50.432617,22.2901712 51.4076981,22.1144026 53.3578603,21.7628653 Z" id="Path-65" fill="#F6C5C1"></path>
                    <path d="M50.0074393,20.068934 C53.0237051,20.068934 53.9855167,20.4805643 53.0237051,23.1012049 C52.0618934,25.7218455 50.0074393,25.1550458 50.0074393,27.9944323 C50.0074393,30.8338189 49.2827587,34.2055231 46.2910238,34.2055231 C43.2992888,34.2055231 36.0678147,36.4317745 32.5026724,34.2055231 C28.9375301,31.9792716 28.5164181,29.7530201 22.4450462,31.9792716 C16.3736743,34.2055231 18.718419,47.3773985 8.85867833,43.7514437 C-1.00106234,40.125489 2.39430735,31.0708834 3.59529422,27.9944323 C4.79628109,24.9179813 6.14433248,23.1012049 9.84439416,23.1012049 C13.5444558,23.1012049 15.0173257,26.1334758 19.7435923,23.1012049 C24.4698589,20.068934 28.901756,17.0366632 32.5026724,20.068934 C36.1035888,23.1012049 40.6039677,24.5742377 42.1432751,23.1012049 C43.6825825,21.6281721 46.9911736,20.068934 50.0074393,20.068934 Z" id="Path-64" fill="#000000"></path>
                </g>
                <g id="举牌人物" transform="translate(1063.000000, 452.000000)">
                    <g transform="translate(39.489362, 42.793686)">
                        <path d="M4.94582334,10.2606175 C4.94582334,11.0639318 5.19224194,24.5502596 7.59328873,27.9663581 C9.19398658,30.2437571 11.6489487,32.8423858 14.9581752,35.7622444 C15.3130278,42.8507223 14.3482498,46.1787463 12.0638412,45.7463163 C8.63722829,45.0976713 7.59328873,46.0188224 4.44875336,42.3789739 C1.30421799,38.7391254 -0.868481294,28.0942153 0.33849835,19.7828198 C1.54547799,11.4714243 0.517822076,12.4208646 1.39623462,10.2606175 C2.27464716,8.10037032 4.94582334,9.45730313 4.94582334,10.2606175 Z" id="Path-44" fill="#000000"></path>
                        <path d="M8.40800256,71.6017552 C6.4923301,80.0186988 5.53449387,87.8538466 5.53449387,95.1071984 C5.53449387,102.36055 5.53449387,109.411873 5.53449387,116.261167 L8.40800256,116.261167 C10.2576328,113.791179 11.8105226,111.01647 13.0666718,107.93704 C14.322821,104.857609 15.4960805,100.250657 16.5864503,94.1161829 L22.203405,83.6170568 L25.8276381,74.5445501 L8.40800256,71.6017552 Z" id="Path-46" stroke="#FFFFFF" stroke-width="2"></path>
                        <polygon id="Path-23" fill="#F6C5C1" transform="translate(7.508921, 119.288563) scale(-1, 1) translate(-7.508921, -119.288563) " points="6.45690952 121.393252 8.56093199 121.393252 8.56093199 117.183875 6.45690952 117.183875"></polygon>
                        <polygon id="Path-24" fill="#0A2048" transform="translate(5.130461, 121.530514) scale(-1, 1) translate(-5.130461, -121.530514) " points="0.922415646 119.951998 3.10848013 119.951998 9.33850551 122.115873 9.33850551 123.109031 0.922415646 123.109031"></polygon>
                        <polygon id="Path-23" fill="#F6C5C1" transform="translate(37.948637, 117.443148) scale(-1, 1) rotate(22.000000) translate(-37.948637, -117.443148) " points="36.9168306 119.537673 39.0009264 119.547859 38.9804436 115.348623 36.8963477 115.338437"></polygon>
                        <polygon id="Path-24" fill="#0A2048" transform="translate(36.704285, 121.627625) scale(-1, 1) rotate(31.000000) translate(-36.704285, -121.627625) " points="32.495666 120.048653 34.6769069 120.061889 40.9067007 122.229184 40.9129038 123.206597 32.5153842 123.155638"></polygon>
                        <path d="M18.4483129,72.8939064 L36.7259317,72.8939064 C33.4527038,79.3908435 32.2167252,84.6308528 33.017996,88.613934 C33.8192669,92.5970153 35.7270872,101.423073 38.7414571,115.092108 L36.7259317,117.183875 C31.5231595,113.398057 27.9181267,109.556431 25.9108335,105.658998 C23.9035404,101.761565 21.4160335,95.5511832 18.4483129,87.027854 L18.4483129,72.8939064 Z" id="Path-47" fill="#FFC107"></path>
                        <path d="M22.9934729,28.3570415 C27.289499,28.3570415 31.0224862,32.4940579 34.1924347,40.7680905 C35.9952288,40.7680905 37.6328769,44.6969473 39.1053789,52.5546608 C41.0681035,63.0283488 37.9640142,73.9394374 36.8966258,75.9792101 C26.3021957,76.5552015 7.30095587,78.3472529 4.89582914,73.1975709 C2.4907024,68.0478889 8.03330345,45.0982387 9.52727449,40.7680905 C11.6568152,34.5957978 17.6654977,28.3570415 22.9934729,28.3570415 Z" id="Path-45" stroke="#FFFFFF" stroke-width="2"></path>
                        <path d="M36.9327325,35.5430817 C42.1331227,36.7357966 45.4849616,36.4312598 46.9882493,34.6294714 C49.2431809,31.9267886 53.4390743,23.9059581 55.0421844,18.593847 C56.6452945,13.2817358 55.2928286,8.60227032 55.978681,6.83875967 C56.6645333,5.07524902 58.695001,4.4671126 59.6138916,6.83875967 C60.5327822,9.21040674 60.3859237,21.1435092 59.6138916,24.4453523 C58.8418596,27.7471954 55.9547925,40.3202621 50.2630951,45.1869953 C46.4686302,48.431484 40.4222128,49.7142898 32.1238429,49.0354125 C29.3718512,47.3886848 28.5198522,44.7150193 29.567846,41.014416 C30.6158398,37.3138127 33.0708019,35.4900346 36.9327325,35.5430817 Z" id="Path-44" fill="#B5D3FF"></path>
                        <path d="M53.6487784,1.68234524 C54.0717827,1.68366278 55.1705798,1.68708521 56.9451698,1.69261253 C59.6070548,1.70090353 59.607491,1.84401074 59.6120825,3.35040248 C59.6151435,4.35466364 57.6305819,4.85060813 53.6583977,4.83823594 L53.6487784,1.68234524 Z" id="Path-20" fill="#F6C5C1" transform="translate(56.630432, 3.260404) rotate(-103.000000) translate(-56.630432, -3.260404) "></path>
                        <path d="M0.0586793585,5.34091374 C0.481736333,5.34203996 1.58067029,5.34496542 3.35548122,5.34969013 C6.01769763,5.35677719 6.01807032,5.49988611 6.02199336,7.00629585 C6.02460872,8.01056901 4.03957698,8.50741777 0.0668981329,8.49684214 L0.0586793585,5.34091374 Z" id="Path-20" fill="#F6C5C1" transform="translate(3.040338, 6.918961) scale(-1, 1) rotate(-101.000000) translate(-3.040338, -6.918961) "></path>
                        <path d="M18.4483129,19.8784414 L18.4483129,18.3842244 C20.2283562,16.7484392 21.6133414,16.2429612 22.6032686,16.8677905 C24.0881594,17.8050345 26.3682376,19.0254151 26.3682376,20.7996686 C26.3682376,22.5739221 27.227324,24.6829795 26.3682376,25.2900697 C25.7955133,25.6947965 24.5405236,26.4918501 22.6032686,27.6812303 L20.9089311,26.9325717 L18.4483129,19.8784414 Z" id="Path-43" fill="#000000"></path>
                        <path d="M18.6367121,20.2995689 C17.1116897,21.0457189 16.3491786,21.6240768 16.3491786,22.0346426 C16.3491786,22.4452084 16.3491786,22.9704127 16.3491786,23.6102555 L15.681066,24.7499754 C15.681066,26.2739344 16.1736737,27.0359138 17.158889,27.0359138 C18.1441044,27.0359138 18.379464,27.8150557 17.864968,29.3733395 L17.864968,33.7207714 C20.9484422,33.0306076 22.4901792,32.1334947 22.4901792,31.0294326 C22.4901792,29.9253706 22.4901792,28.9407791 22.4901792,28.0756584 C21.3010439,28.1483072 20.8897017,27.7931444 21.2561528,27.0101701 C21.6226039,26.2271958 22.2240167,25.4737976 23.0603911,24.7499754 C22.8953661,23.9901621 22.7052955,23.6102555 22.4901792,23.6102555 C22.275063,23.6102555 21.8637209,23.9901621 21.2561528,24.7499754 L21.2561528,22.0346426 C20.3154469,22.244117 19.6869722,22.244117 19.3707286,22.0346426 C19.054485,21.8251681 18.8098128,21.2468102 18.6367121,20.2995689 Z" id="Path-42" fill="#F6C5C1"></path>
                    </g>
                    <g id="牌子">
                        <polygon id="Rectangle-23" fill="#FFFFFF" transform="translate(58.314138, 26.101093) rotate(-4.000000) translate(-58.314138, -26.101093) " points="2.19967454 4.67084206 114.470764 4.73443699 114.428602 47.531343 2.15751283 47.4677481"></polygon>
                        <polygon id="Rectangle-24" fill="#3975F6" transform="translate(74.632353, 14.401721) rotate(-4.000000) translate(-74.632353, -14.401721) " points="41.7964957 13.2281857 107.470666 13.1665664 107.46821 15.5752566 41.7940399 15.6368759"></polygon>
                        <polygon id="Rectangle-24" fill="#D6D6D6" transform="translate(74.632353, 22.631276) rotate(-4.000000) translate(-74.632353, -22.631276) " points="41.7964957 21.4577406 107.470666 21.3961213 107.46821 23.8048116 41.7940399 23.8664309"></polygon>
                        <polygon id="Rectangle-24" fill="#3975F6" transform="translate(63.125722, 23.382834) rotate(-4.000000) translate(-63.125722, -23.382834) " points="41.822817 22.212258 84.4310804 22.1232168 84.4286272 24.5534102 41.8203638 24.6424514"></polygon>
                        <polygon id="Rectangle-24" fill="#D6D6D6" transform="translate(74.632353, 30.860831) rotate(-4.000000) translate(-74.632353, -30.860831) " points="41.7964957 29.6872955 107.470666 29.6256763 107.46821 32.0343665 41.7940399 32.0959858"></polygon>
                        <polygon id="Rectangle-24" fill="#3975F6" transform="translate(67.473272, 31.337937) rotate(-4.000000) translate(-67.473272, -31.337937) " points="41.8135615 30.1570229 93.1354378 30.0970475 93.1329818 32.5188503 41.8111055 32.5788257"></polygon>
                        <polygon id="Rectangle-23" fill="#B9DBFF" transform="translate(23.079075, 28.757815) rotate(-4.000000) translate(-23.079075, -28.757815) " points="9.64227755 15.0306182 36.5430753 14.9731874 36.5158717 42.4850117 9.61507395 42.5424425"></polygon>
                    </g>
                </g>
                <g id="左边人物" transform="translate(596.087632, 641.157573) rotate(2.000000) translate(-596.087632, -641.157573) translate(573.920547, 585.739861)">
                    <polygon id="Path-23" fill="#F6C5C1" points="14.9609066 107.569603 17.1503076 107.569603 17.1503076 103.179007 14.9609066 103.179007"></polygon>
                    <polygon id="Path-23" fill="#F6C5C1" points="31.3814138 108.301369 33.5708148 108.301369 33.5708148 103.910773 31.3814138 103.910773"></polygon>
                    <polygon id="Path-21" fill="#F4A49E" points="31.7990543 12.0741391 33.935715 10.8273766 33.935715 7.31766006 30.2867133 7.31766006 30.2867133 10.8273766"></polygon>
                    <polygon id="Path-22" fill="#FFFFFF" points="30.9879782 5.40066153 33.1773792 5.40066153 33.1773792 9.79125757 30.9879782 9.79125757"></polygon>
                    <path d="M36.9360849,53.4570209 C38.072324,63.0722773 38.5061132,70.2325537 38.2374523,74.9378499 C37.9687915,79.6431461 36.5747406,89.3007871 34.0552996,103.910773 L30.6042238,103.910773 C28.5602098,94.9200425 27.2407642,89.0336646 26.6458869,86.2516392 C26.0510097,83.4696138 25.2160641,77.457987 24.14105,68.216759 L21.5604681,51.971108 L36.9360849,53.4570209 Z" id="Path-19" stroke="#FFFFFF" stroke-width="2"></path>
                    <path d="M32.617228,55.6699565 C32.4573819,67.8302098 31.2633792,76.4808655 29.0352198,81.6219235 C27.3322582,85.5511867 23.830547,93.2247252 18.5300863,104.642539 C16.9118719,104.642539 15.5052897,104.642539 14.3103397,104.642539 C13.3414252,104.642539 5.91974319,85.9369523 4.13648542,79.7748171 C2.9476469,75.6667269 1.9666887,67.1253494 1.19361082,54.1506845 L32.617228,55.6699565 Z" id="Path-18" fill="#0A2048"></path>
                    <path d="M30.2867133,17.135337 L32.2671812,21.1184901 C33.740236,21.1184901 34.1344511,20.1533057 33.4498267,18.2229369 C32.7652022,16.2925681 32.0408418,13.9769689 31.2767455,11.2761393 L33.4498267,10.2447241 C37.9102553,14.2205484 40.6048967,17.8451371 41.5337509,21.1184901 C42.927032,26.0285196 42.602182,28.922196 39.646296,32.0815562 C37.6757052,34.1877963 34.8858551,34.1877963 31.2767455,32.0815562 L30.2867133,17.135337 Z" id="Path-17" fill="#051B32"></path>
                    <path d="M21.9451199,10.6106071 C14.1496395,12.5348476 8.85642339,16.887086 6.06547164,23.6673222 C1.87904402,33.8376767 1.52227929,39.9822753 0.514699347,46.6734709 C-0.492880595,53.3646665 0.242309041,60.3886993 0.514699347,60.5292144 C6.47188805,63.6022857 15.9491916,63.8446674 23.2790772,62.5784232 C28.1656676,61.7342605 32.8125807,58.9375772 37.2198164,54.1883734 L33.1304275,26.3996007 L30.0597626,17.2806731 L28.1302784,13.5827897 L21.9451199,10.6106071 Z" id="Path-15" stroke="#FFFFFF" stroke-width="2"></path>
                    <g id="Group-2" transform="translate(19.339709, 0.000000)">
                        <path d="M1.44745324,7.9163777 C1.61957057,9.69160345 1.48471788,10.9304977 1.04289515,11.6330606 C0.601072432,12.3356234 0.253440714,12.8900417 0,13.2963154 L2.36280451,15.8327554 L4.57891811,15.2656868 C4.59682984,13.9956372 4.75803543,13.1129381 5.06253487,12.6175895 C5.36703432,12.1222409 4.16200711,10.5551703 1.44745324,7.9163777 Z" id="Path-14" fill="#F4A49E"></path>
                        <path d="M9.54899777,4.50787024 C9.95340653,6.46472523 9.95340653,7.85650026 9.54899777,8.68319531 C8.94238464,9.92323788 7.01451394,13.5709332 6.45640466,13.5709332 C5.89829538,13.5709332 2.33011253,12.2774516 2.33011253,11.3000972 C2.33011253,10.3227428 1.35531106,7.69360785 1.35531106,7.28058225 C1.35531106,6.86755665 0.729800322,7.22392402 0.729800322,6.46322293 C0.729800322,5.70252184 1.63468066,3.05729084 2.33011253,3.78258054 C2.79373379,4.266107 3.37819472,3.81090965 4.08349535,2.41698848 L5.86176001,1.88485183 L8.62616471,2.82454142 L9.54899777,4.50787024 Z" id="Path-13" fill="#F6C5C1"></path>
                        <path d="M1.840693,4.34469356 C1.7748276,4.1534019 1.90990395,3.52425526 2.24592208,2.45725365 C2.74994926,0.856751238 3.73197111,0.0733406078 4.55717056,0.0733406078 C5.38237001,0.0733406078 7.63026224,-0.369210292 8.92373337,0.919903397 C10.2172045,2.20901709 10.2172045,3.48064248 10.2172045,3.91266802 C10.2172045,4.34469356 9.26529255,4.7767191 8.92373337,4.34469356 C8.69602725,4.05667654 7.72840035,3.4275299 6.02085265,2.45725365 L4.55717056,2.45725365 L3.26432672,3.91266802 L1.840693,4.34469356 Z" id="Path-12" fill="#000000"></path>
                    </g>
                    <path d="M17.3195951,16.4647351 C21.5679886,16.4647351 24.0003828,21.332239 24.6167776,31.0672468 L38.679417,42.5873943 L38.679417,45.0036094 L28.0183032,42.5873943 C22.3924574,40.7129198 18.4089369,38.6532403 16.0677416,36.4083559 C13.7265463,34.1634715 12.019634,30.3137174 10.9470048,24.8590934 C10.9470048,19.2628546 13.0712016,16.4647351 17.3195951,16.4647351 Z" id="Path-16" fill="#B5D3FF"></path>
                    <polygon id="Path-24" fill="#F9B254" points="14.9609066 107.20372 17.2356787 107.20372 23.7185104 109.460753 23.7185104 110.496667 14.9609066 110.496667"></polygon>
                    <polygon id="Path-24" fill="#F9B254" points="31.3814138 106.837837 33.656186 106.837837 40.1390177 109.09487 40.1390177 110.130784 31.3814138 110.130784"></polygon>
                    <path d="M37.9496167,42.0765454 C38.3900165,42.0765454 39.5340003,42.0765454 41.3815679,42.0765454 C44.1529195,42.0765454 44.1529195,42.2258675 44.1529195,43.79768 C44.1529195,44.8455549 42.0851519,45.3694924 37.9496167,45.3694924 L37.9496167,42.0765454 Z" id="Path-20" fill="#F6C5C1"></path>
                </g>
            </g>
        </g>
    </g>
</svg>