<?xml version="1.0" encoding="UTF-8"?>
<svg width="16px" height="16px" viewBox="0 0 16 16" version="1.1" xmlns="http://www.w3.org/2000/svg" xmlns:xlink="http://www.w3.org/1999/xlink">
    <!-- Generator: Sketch 52.6 (67491) - http://www.bohemiancoding.com/sketch -->
    <title>分组 3</title>
    <desc>Created with Sketch.</desc>
    <g id="Page-1" stroke="none" stroke-width="1" fill="none" fill-rule="evenodd">
        <g id="画板-copy-14" transform="translate(-916.000000, -264.000000)">
            <g id="分组-2" transform="translate(916.000000, 263.000000)">
                <g id="分组-3" transform="translate(0.000000, 1.000000)">
                    <path d="M14,8 C14,4.691 11.309,2 8,2 C4.691,2 2,4.691 2,8 C2,11.309 4.691,14 8,14 C11.309,14 14,11.309 14,8 Z M16,8 C16,12.418 12.418,16 8,16 C3.582,16 0,12.418 0,8 C0,3.582 3.582,0 8,0 C12.418,0 16,3.582 16,8 Z" id="Fill-1-Copy" fill="#0ABF5B"></path>
                    <polyline id="路径-3" stroke="#0ABF5B" stroke-width="2" fill-rule="nonzero" points="5 8 7 10 11 6"></polyline>
                </g>
            </g>
        </g>
    </g>
</svg>