<svg id="图层_1" data-name="图层 1" xmlns="http://www.w3.org/2000/svg" viewBox="0 0 16 16"><defs><style>.cls-1{fill:#006eff;}</style></defs><title>icon-xm-selected</title><path class="cls-1" d="M14.81,10A.66.66,0,0,0,14,10L8.34,13.39a.64.64,0,0,1-.68,0L2,10a.66.66,0,0,0-.79.08.53.53,0,0,0,.1.85l6.38,4a.68.68,0,0,0,.7,0l6.38-4a.53.53,0,0,0,.1-.85Z"/><path class="cls-1" d="M1.27,8.37l6.38,4a.68.68,0,0,0,.7,0l6.38-4a.54.54,0,0,0,.1-.86h0A.65.65,0,0,0,14,7.42L8.34,10.87a.69.69,0,0,1-.68,0L2,7.43a.68.68,0,0,0-.79.08A.54.54,0,0,0,1.27,8.37Z"/><path class="cls-1" d="M7.65,9.83a.68.68,0,0,0,.7,0l6.24-3.9a.54.54,0,0,0,0-.93L8.35,1.1a.68.68,0,0,0-.7,0L1.41,5a.54.54,0,0,0,0,.93ZM5.54,6.05,9.45,3.62a.59.59,0,0,1,.76.14.48.48,0,0,1-.14.7L6.16,6.88a.59.59,0,0,1-.77-.13A.47.47,0,0,1,5.54,6.05Z"/></svg>