<svg id="图层_1" data-name="图层 1" xmlns="http://www.w3.org/2000/svg" viewBox="0 0 16 16"><defs><style>.cls-1{fill:#888;}</style></defs><title>icon-dz-default</title><path class="cls-1" d="M14,3H2A1,1,0,0,0,1,4v8a1,1,0,0,0,1,1H14a1,1,0,0,0,1-1V4A1,1,0,0,0,14,3ZM9.25,5.75h2a.25.25,0,0,1,0,.5h-2a.25.25,0,0,1,0-.5Zm0,2h4a.25.25,0,0,1,0,.5h-4a.25.25,0,0,1,0-.5ZM2,11s0-.78.17-.94.27-.46,1.26-.6.89-.62.93-.6c0-.18,0-.44,0-.44a1.27,1.27,0,0,1-.67-.6c-.32-.12-.28-.2-.31-.35,0,0-.1-.62.12-.61a.11.11,0,0,0,.11-.14c0-.24,0-.7,0-.86s.15-.58.51-.65a1.27,1.27,0,0,1,.34,0c.12,0,.08-.08.31-.08L5.2,5c.22,0,.37.34.49.35s.15,0,.39,0,.31.51.33.67a3.6,3.6,0,0,1,0,.73c0,.14.07.13.07.13.26,0,.18.6.18.6,0,.17-.15.18-.39.32a1.73,1.73,0,0,1-.64.7s0,.33,0,.4,0,.44.8.56a1.88,1.88,0,0,1,1.35.6C8,10.22,8,11,8,11Zm11.85-.75H9.25a.25.25,0,0,1,0-.5h4.6a.25.25,0,1,1,0,.5Z"/></svg>