<svg id="图层_1" data-name="图层 1" xmlns="http://www.w3.org/2000/svg" viewBox="0 0 16 16"><defs><style>.cls-1{fill:none;}.cls-2{fill:#006eff;}</style></defs><title>icon-wx-selected</title><path class="cls-1" d="M7.81,6.17a.6.6,0,0,0,.62-.66.6.6,0,0,0-.62-.65.7.7,0,0,0-.74.65A.7.7,0,0,0,7.81,6.17Z"/><path class="cls-1" d="M12.15,9.69a.58.58,0,0,0,.62-.52.58.58,0,0,0-.62-.52.52.52,0,0,0,0,1Z"/><path class="cls-1" d="M9.42,8.65a.52.52,0,0,0,0,1A.57.57,0,0,0,10,9.17.57.57,0,0,0,9.42,8.65Z"/><path class="cls-1" d="M4.35,6.17A.6.6,0,0,0,5,5.51a.59.59,0,0,0-.61-.65.71.71,0,0,0-.75.65A.71.71,0,0,0,4.35,6.17Z"/><path class="cls-2" d="M10.48,5.63a3.59,3.59,0,0,1,.47,0A5,5,0,0,0,6,2,4.7,4.7,0,0,0,1,6.43,4.3,4.3,0,0,0,3,10l-.49,1.57,1.73-.91A8,8,0,0,0,6,10.87l.46,0a3.94,3.94,0,0,1-.16-1.09A4.16,4.16,0,0,1,10.48,5.63ZM7.81,4.22a.6.6,0,0,1,.62.65.6.6,0,0,1-.62.65.7.7,0,0,1-.74-.65A.7.7,0,0,1,7.81,4.22ZM4.35,5.52a.71.71,0,0,1-.75-.65.71.71,0,0,1,.75-.65A.59.59,0,0,1,5,4.87.59.59,0,0,1,4.35,5.52Z"/><path class="cls-2" d="M15,9.69a4.08,4.08,0,0,0-4.21-3.78A4,4,0,0,0,6.58,9.69a4,4,0,0,0,4.21,3.79,6.06,6.06,0,0,0,1.49-.26l1.36.78-.38-1.3A4,4,0,0,0,15,9.69ZM9.42,9a.52.52,0,0,1,0-1,.57.57,0,0,1,.62.52A.57.57,0,0,1,9.42,9Zm2.73,0a.52.52,0,0,1,0-1,.58.58,0,0,1,.62.52A.58.58,0,0,1,12.15,9Z"/></svg>