<svg id="图层_1" data-name="图层 1" xmlns="http://www.w3.org/2000/svg" viewBox="0 0 16 16"><defs><style>.cls-1{fill:#888;}</style></defs><title>icon-zz-default</title><path class="cls-1" d="M6.35,2H3A1,1,0,0,0,2,3V6.37A1.25,1.25,0,0,0,3.26,7.63H6.61a1,1,0,0,0,1-1V3.27A1.27,1.27,0,0,0,6.35,2Z"/><path class="cls-1" d="M13,2H9.65A1.27,1.27,0,0,0,8.38,3.27V6.63a1,1,0,0,0,1,1h3.35A1.25,1.25,0,0,0,14,6.37V3A1,1,0,0,0,13,2Z"/><path class="cls-1" d="M6.61,8.37H3.26A1.25,1.25,0,0,0,2,9.63V13a1,1,0,0,0,1,1H6.35a1.26,1.26,0,0,0,1.27-1.26V9.37A1,1,0,0,0,6.61,8.37Z"/><path class="cls-1" d="M12.74,8.37H9.39a1,1,0,0,0-1,1v3.37A1.26,1.26,0,0,0,9.65,14H13a1,1,0,0,0,1-1V9.63A1.25,1.25,0,0,0,12.74,8.37Z"/></svg>