<?xml version="1.0" encoding="utf-8"?>
<!-- Generator: Adobe Illustrator 21.0.0, SVG Export Plug-In . SVG Version: 6.00 Build 0)  -->
<svg version="1.1" id="图层_1" xmlns="http://www.w3.org/2000/svg" xmlns:xlink="http://www.w3.org/1999/xlink" x="0px" y="0px"
	 width="48px" height="48px" viewBox="0 0 48 48" enable-background="new 0 0 48 48" xml:space="preserve">
<g>
	<rect x="4" y="4" fill="#FF554D" width="40" height="40"/>
	<g>
		<g>
			<path fill="#FFFFFF" d="M13.831,17.729c2.937,0,4.435,1.256,4.435,3.729c0,2.653-1.559,4.092-4.435,4.092h-1.54v4.721H10V17.729
				H13.831z M13.77,23.645c1.459,0,2.248-0.73,2.248-2.147c0-1.277-0.73-1.884-2.248-1.884h-1.5v4.031H13.77z"/>
			<path fill="#FFFFFF" d="M23.352,17.729c3.849,0,5.651,1.986,5.651,6.262c0,4.214-1.863,6.28-5.651,6.28h-3.709V17.729H23.352z
				 M23.37,28.143c2.291,0,3.284-1.236,3.284-4.092c0-2.939-0.993-4.236-3.243-4.236h-1.478v8.327H23.37z"/>
			<path fill="#FFFFFF" d="M33.115,30.271h-2.288V17.729H38v1.986h-4.885v3.384h4.277l-0.608,1.946h-3.669V30.271z"/>
		</g>
	</g>
</g>
</svg>
