<?xml version="1.0" encoding="utf-8"?>
<!-- Generator: Adobe Illustrator 21.0.0, SVG Export Plug-In . SVG Version: 6.00 Build 0)  -->
<svg version="1.1" id="图层_1" xmlns="http://www.w3.org/2000/svg" xmlns:xlink="http://www.w3.org/1999/xlink" x="0px" y="0px"
	 width="48px" height="48px" viewBox="0 0 48 48" enable-background="new 0 0 48 48" xml:space="preserve">
<g>
	<rect x="4" y="4" fill="#1FC0CC" width="40" height="40"/>
	<path fill="#FFFFFF" d="M15,12L15,12c-1.657,0-3,1.343-3,3l0,0c0,1.657,1.343,3,3,3l0,0c1.657,0,3-1.343,3-3l0,0
		C18,13.343,16.657,12,15,12z"/>
	<polygon fill="#FFFFFF" points="30,21.2 20,33.2 14,26 10,30.8 10,38 16,38 24,38 38,38 38,30.8 	"/>
</g>
</svg>
