<?xml version="1.0" encoding="utf-8"?>
<!-- Generator: Adobe Illustrator 21.0.0, SVG Export Plug-In . SVG Version: 6.00 Build 0)  -->
<svg version="1.1" id="图层_1" xmlns="http://www.w3.org/2000/svg" xmlns:xlink="http://www.w3.org/1999/xlink" x="0px" y="0px"
	 width="24px" height="24px" viewBox="0 0 24 24" enable-background="new 0 0 24 24" xml:space="preserve">
<g>
	<g>
		<polygon fill="#888888" points="10,3 1,3 1,7 23,7 23,5 12,5 		"/>
	</g>
	<g>
		<rect x="1" y="8" fill="#888888" width="22" height="13"/>
	</g>
</g>
<g opacity="0.5">
	<g>
		<path fill="#FFFFFF" d="M15,16v2H9v-6h2v-1H9v0H8v0h0v1h0v7h8v-3H15z M15,14h1v-3h-1v0h-2v1h1v1h1V14z M14,13h-1v1h1V13z M13,14
			h-1v1h1V14z M11,16h1v-1h-1V16z"/>
	</g>
</g>
</svg>
