<?xml version="1.0" encoding="utf-8"?>
<!-- Generator: Adobe Illustrator 17.0.0, SVG Export Plug-In . SVG Version: 6.00 Build 0)  -->
<!DOCTYPE svg PUBLIC "-//W3C//DTD SVG 1.1//EN" "http://www.w3.org/Graphics/SVG/1.1/DTD/svg11.dtd">
<svg version="1.1" id="图层_1" xmlns="http://www.w3.org/2000/svg" xmlns:xlink="http://www.w3.org/1999/xlink" x="0px" y="0px"
	 width="16px" height="16px" viewBox="0 0 16 16" enable-background="new 0 0 16 16" xml:space="preserve">
<g>
	<path fill="#888888" d="M12.71,4.355l-1.43,1.43C11.731,6.434,12,7.217,12,8.065c0,2.206-1.794,4-4,4V10l-3,3.033l3,3.033v-2
		c3.314,0,6-2.686,6-6C14,6.663,13.515,5.377,12.71,4.355z"/>
	<path fill="#888888" d="M8,4.065v2l3-3.032L8,0v2.065c-3.314,0-6,2.686-6,6c0,1.402,0.485,2.688,1.29,3.71l1.43-1.43
		C4.269,9.697,4,8.913,4,8.065C4,5.859,5.794,4.065,8,4.065z"/>
</g>
</svg>
