<?xml version="1.0" encoding="utf-8"?>
<!-- Generator: Adobe Illustrator 21.0.0, SVG Export Plug-In . SVG Version: 6.00 Build 0)  -->
<svg version="1.1" id="图层_1" xmlns="http://www.w3.org/2000/svg" xmlns:xlink="http://www.w3.org/1999/xlink" x="0px" y="0px"
	 width="24px" height="24px" viewBox="0 0 24 24" enable-background="new 0 0 24 24" xml:space="preserve">
<g>
	<rect x="2" y="2" fill="#FF554D" width="20" height="20"/>
	<g>
		<g>
			<path fill="#FFFFFF" d="M6.915,8.864c1.469,0,2.218,0.628,2.218,1.865c0,1.326-0.78,2.046-2.218,2.046h-0.77v2.361H5V8.864H6.915
				z M6.885,11.823c0.729,0,1.124-0.365,1.124-1.074c0-0.639-0.365-0.942-1.124-0.942h-0.75v2.016H6.885z"/>
			<path fill="#FFFFFF" d="M11.676,8.864c1.924,0,2.826,0.993,2.826,3.131c0,2.107-0.932,3.14-2.826,3.14H9.822V8.864H11.676z
				 M11.685,14.072c1.146,0,1.642-0.618,1.642-2.046c0-1.469-0.496-2.118-1.621-2.118h-0.739v4.164H11.685z"/>
			<path fill="#FFFFFF" d="M16.558,15.136h-1.144V8.864H19v0.993h-2.442v1.692h2.138l-0.304,0.973h-1.834V15.136z"/>
		</g>
	</g>
</g>
</svg>
