<?xml version="1.0" encoding="UTF-8"?>
<svg width="16px" height="16px" viewBox="0 0 16 16" version="1.1" xmlns="http://www.w3.org/2000/svg" xmlns:xlink="http://www.w3.org/1999/xlink">
    <!-- Generator: Sketch 63 (92445) - https://sketch.com -->
    <title>账号-选中</title>
    <desc>Created with Sketch.</desc>
    <g id="账号-选中" stroke="none" stroke-width="1" fill="none" fill-rule="evenodd">
        <g id="08_子账号管理" fill-rule="nonzero">
            <rect id="矩形" fill="#000000" opacity="0" x="0" y="0" width="16" height="16"></rect>
            <path d="M13.1857344,12.4296719 L11.2742031,12.4296719 C10.8540313,10.7894375 9.45451563,9.51535938 7.72101563,9.23482812 C8.133125,8.93428125 8.48007813,8.55370313 8.73723438,8.11678125 C8.84979587,8.10578561 8.96282461,8.10021875 9.07592188,8.10021875 L11.4733438,8.10021875 C13.3570625,8.10021875 14.8982656,9.59889062 14.8982656,11.4305 C14.8982656,11.9800312 13.750875,12.4296719 13.1857344,12.4296719 L13.1857344,12.4296719 Z M10.2746094,7.2658125 C9.8765625,7.2658125 9.498375,7.18317187 9.157,7.03467187 C9.20792271,6.79199154 9.23353892,6.54468418 9.2334375,6.29671875 C9.2334375,5.13589063 8.67909375,4.10128125 7.81401563,3.42873437 C8.2600625,2.5454375 9.19421875,1.93735937 10.2746094,1.93735937 C11.7879063,1.93735937 13.0145469,3.13015625 13.0145469,4.60157812 C13.0145469,6.073 11.7879063,7.2658125 10.2746094,7.2658125 L10.2746094,7.2658125 Z M5.740625,8.8984375 C4.22745312,8.8984375 3.00067188,7.70553125 3.00067188,6.23425 C3.00067188,4.76273437 4.22745312,3.57001562 5.740625,3.57001562 C7.25378125,3.57001562 8.4805,4.76273437 8.4805,6.23425 C8.4805,7.70553125 7.25378125,8.8984375 5.740625,8.8984375 Z M6.93929688,9.73289062 C8.82295312,9.73289062 10.3641406,11.2315156 10.3641406,13.0631719 C10.3641406,13.6127031 9.21682813,14.0623281 8.65175,14.0623281 L2.82942187,14.0623281 C2.26434375,14.0623281 1.11695312,13.6127031 1.11695312,13.0631719 C1.11695312,11.2315156 2.65815625,9.73289062 4.541875,9.73289062 L6.93929688,9.73289062 Z" id="形状" fill="#006EFF"></path>
        </g>
    </g>
</svg>