<?xml version="1.0" encoding="utf-8"?>
<!-- Generator: Adobe Illustrator 16.0.0, SVG Export Plug-In . SVG Version: 6.00 Build 0)  -->
<!DOCTYPE svg PUBLIC "-//W3C//DTD SVG 1.1//EN" "http://www.w3.org/Graphics/SVG/1.1/DTD/svg11.dtd">
<svg version="1.1" id="图层_1" xmlns="http://www.w3.org/2000/svg" xmlns:xlink="http://www.w3.org/1999/xlink" x="0px" y="0px"
	 width="320px" height="24px" viewBox="0 0 320 24" enable-background="new 0 0 320 24" xml:space="preserve">
<rect x="0.002" fill="#333333" width="319.996" height="24"/>
<g>
	<g>
		<path fill="#FFFFFF" d="M50.264,6.808l-2.119,7.563h-1.138l-1.523-5.449c-0.068-0.248-0.109-0.508-0.122-0.781h-0.02
			c-0.02,0.27-0.065,0.527-0.137,0.771l-1.538,5.459h-1.128l-2.192-7.563h1.079l1.543,5.713c0.068,0.257,0.109,0.516,0.122,0.776
			h0.029c0.016-0.195,0.07-0.454,0.161-0.776l1.636-5.713h0.962l1.563,5.757c0.052,0.189,0.094,0.43,0.127,0.723h0.02
			c0.016-0.211,0.063-0.459,0.142-0.742l1.484-5.737H50.264z"/>
		<path fill="#FFFFFF" d="M55.386,11.916h-3.779c0.016,0.576,0.174,1.021,0.474,1.335s0.718,0.471,1.255,0.471
			c0.605,0,1.161-0.194,1.665-0.581v0.854c-0.475,0.335-1.105,0.503-1.89,0.503c-0.781,0-1.391-0.248-1.829-0.742
			s-0.657-1.182-0.657-2.061c0-0.827,0.24-1.509,0.72-2.046s1.077-0.806,1.79-0.806c0.707,0,1.258,0.227,1.655,0.681
			s0.596,1.09,0.596,1.907V11.916z M54.429,11.149c-0.003-0.488-0.119-0.866-0.347-1.133s-0.548-0.4-0.962-0.4
			c-0.381,0-0.71,0.142-0.989,0.425s-0.453,0.653-0.525,1.108H54.429z"/>
		<path fill="#FFFFFF" d="M61.958,14.059c-0.557,0.293-1.255,0.439-2.095,0.439c-1.084,0-1.95-0.344-2.598-1.033
			s-0.972-1.599-0.972-2.732c0-1.217,0.365-2.197,1.094-2.939s1.655-1.113,2.778-1.113c0.723,0,1.32,0.103,1.792,0.308v1.021
			C61.417,7.71,60.824,7.56,60.176,7.56c-0.843,0-1.53,0.281-2.061,0.842s-0.796,1.319-0.796,2.273c0,0.905,0.248,1.624,0.742,2.156
			s1.143,0.798,1.943,0.798c0.749,0,1.4-0.169,1.953-0.508V14.059z"/>
		<path fill="#FFFFFF" d="M67.91,14.372h-0.952v-3.105c0-1.087-0.404-1.631-1.211-1.631c-0.414,0-0.757,0.159-1.03,0.476
			s-0.41,0.717-0.41,1.199v3.062H63.35V6.378h0.957V9.86h0.02c0.414-0.677,1.001-1.016,1.763-1.016c1.214,0,1.821,0.734,1.821,2.202
			V14.372z"/>
		<path fill="#FFFFFF" d="M69.634,9.347c0.537-0.335,1.157-0.503,1.86-0.503c1.302,0,1.953,0.684,1.953,2.051v3.477H72.5v-0.835
			h-0.024c-0.375,0.641-0.926,0.962-1.655,0.962c-0.524,0-0.941-0.142-1.25-0.425s-0.464-0.666-0.464-1.147
			c0-1.009,0.597-1.597,1.792-1.763l1.602-0.225c0-0.882-0.365-1.323-1.094-1.323c-0.648,0-1.239,0.218-1.772,0.654V9.347z
			 M71.235,11.833c-0.443,0.059-0.748,0.169-0.916,0.332s-0.251,0.391-0.251,0.684c0,0.257,0.091,0.467,0.273,0.63
			s0.423,0.244,0.723,0.244c0.417,0,0.76-0.146,1.03-0.439s0.405-0.661,0.405-1.104v-0.518L71.235,11.833z"/>
		<path fill="#FFFFFF" d="M77.627,14.318c-0.208,0.114-0.49,0.171-0.845,0.171c-0.967,0-1.45-0.536-1.45-1.606v-3.12h-0.928V8.971
			h0.928V7.672l0.952-0.303v1.602h1.343v0.791h-1.343v2.949c0,0.355,0.06,0.609,0.181,0.762s0.321,0.229,0.601,0.229
			c0.215,0,0.402-0.06,0.562-0.181V14.318z"/>
	</g>
</g>
<g>
	<polygon fill="#FFFFFF" points="138.534,6.647 135.844,7.428 135.844,8.307 137.582,7.804 137.582,13.546 135.888,13.546 
		135.888,14.372 140.224,14.372 140.224,13.546 138.534,13.546 	"/>
	<path fill="#FFFFFF" d="M142.04,13.244c-0.179,0-0.329,0.06-0.449,0.181s-0.181,0.269-0.181,0.444c0,0.169,0.06,0.315,0.178,0.437
		s0.268,0.183,0.447,0.183c0.186,0,0.338-0.061,0.459-0.183s0.181-0.268,0.181-0.437c0-0.172-0.06-0.32-0.181-0.442
		S142.222,13.244,142.04,13.244z"/>
	<path fill="#FFFFFF" d="M142.04,8.859c-0.172,0-0.321,0.059-0.444,0.176s-0.186,0.264-0.186,0.439c0,0.172,0.06,0.319,0.181,0.439
		s0.269,0.181,0.444,0.181c0.186,0,0.338-0.06,0.459-0.181s0.181-0.267,0.181-0.439s-0.062-0.318-0.186-0.437
		S142.216,8.859,142.04,8.859z"/>
	<path fill="#FFFFFF" d="M146.61,11.818c0.703-0.697,1.181-1.271,1.433-1.721s0.378-0.911,0.378-1.379
		c0-0.622-0.197-1.117-0.591-1.484s-0.931-0.552-1.611-0.552c-0.791,0-1.484,0.229-2.08,0.688v0.972
		c0.612-0.573,1.255-0.859,1.929-0.859c0.456,0,0.804,0.115,1.045,0.344s0.361,0.559,0.361,0.989c0,0.377-0.103,0.743-0.308,1.096
		s-0.61,0.833-1.216,1.438l-2.197,2.192v0.83h4.6v-0.85h-3.467v-0.02L146.61,11.818z"/>
	<polygon fill="#FFFFFF" points="152.67,6.647 149.979,7.428 149.979,8.307 151.718,7.804 151.718,13.546 150.023,13.546 
		150.023,14.372 154.359,14.372 154.359,13.546 152.67,13.546 	"/>
	<path fill="#FFFFFF" d="M163.876,6.808l-2.881,7.563h1.079l0.728-2.07h3.149l0.771,2.07h1.079l-2.881-7.563H163.876z
		 M163.109,11.447l1.133-3.145c0.045-0.124,0.086-0.299,0.122-0.527h0.024c0.043,0.25,0.082,0.426,0.117,0.527l1.143,3.145H163.109z
		"/>
	<path fill="#FFFFFF" d="M175.448,6.808l-2.271,5.166c-0.068,0.166-0.188,0.482-0.356,0.947h-0.034
		c-0.055-0.221-0.168-0.531-0.337-0.928l-2.231-5.186h-1.323v7.563h0.933V9.406c0-0.67-0.016-1.182-0.049-1.533h0.029
		c0.092,0.407,0.166,0.675,0.225,0.806l2.49,5.693h0.542l2.495-5.737c0.064-0.143,0.141-0.397,0.225-0.762h0.024
		c-0.049,0.58-0.073,1.076-0.073,1.489v5.01h0.972V6.808H175.448z"/>
</g>
<g>
	<g>
		<path fill="#FFFFFF" d="M264.848,14.372h-4.336v-0.825h1.694V7.804l-1.738,0.503V7.428l2.69-0.781v6.899h1.689V14.372z"/>
		<path fill="#FFFFFF" d="M265.897,10.739c0-1.334,0.222-2.345,0.664-3.03s1.084-1.028,1.924-1.028c1.602,0,2.402,1.292,2.402,3.877
			c0,1.276-0.226,2.252-0.677,2.927c-0.45,0.675-1.082,1.013-1.896,1.013c-0.768,0-1.363-0.321-1.785-0.962
			C266.108,12.896,265.897,11.963,265.897,10.739z M266.874,10.695c0,2.008,0.509,3.013,1.528,3.013
			c1.002,0,1.504-1.021,1.504-3.062c0-2.113-0.492-3.169-1.475-3.169C267.393,7.477,266.874,8.55,266.874,10.695z"/>
		<path fill="#FFFFFF" d="M271.762,10.739c0-1.334,0.221-2.345,0.664-3.03s1.084-1.028,1.924-1.028c1.602,0,2.402,1.292,2.402,3.877
			c0,1.276-0.226,2.252-0.676,2.927c-0.451,0.675-1.084,1.013-1.897,1.013c-0.769,0-1.363-0.321-1.784-0.962
			C271.973,12.896,271.762,11.963,271.762,10.739z M272.738,10.695c0,2.008,0.51,3.013,1.528,3.013c1.003,0,1.504-1.021,1.504-3.062
			c0-2.113-0.491-3.169-1.475-3.169C273.258,7.477,272.738,8.55,272.738,10.695z"/>
		<path fill="#FFFFFF" d="M277.606,8.717c0-0.619,0.165-1.11,0.495-1.475c0.331-0.365,0.775-0.547,1.336-0.547
			c0.537,0,0.956,0.167,1.258,0.503c0.301,0.335,0.451,0.802,0.451,1.401c0,0.596-0.166,1.079-0.498,1.45s-0.773,0.557-1.323,0.557
			c-0.521,0-0.938-0.172-1.25-0.518S277.606,9.287,277.606,8.717z M278.358,8.668c0,0.42,0.091,0.744,0.273,0.972
			s0.431,0.342,0.747,0.342c0.326,0,0.577-0.118,0.754-0.354c0.178-0.236,0.267-0.569,0.267-0.999c0-0.42-0.087-0.745-0.261-0.974
			c-0.175-0.229-0.42-0.344-0.735-0.344c-0.322,0-0.577,0.12-0.765,0.359C278.452,7.909,278.358,8.242,278.358,8.668z
			 M284.442,6.808l-4.858,7.612h-0.815l4.858-7.612H284.442z M282.138,12.599c0-0.619,0.165-1.112,0.495-1.482
			c0.331-0.37,0.774-0.554,1.331-0.554c0.534,0,0.952,0.168,1.255,0.505s0.454,0.812,0.454,1.423c0,0.592-0.167,1.073-0.503,1.443
			s-0.773,0.554-1.313,0.554c-0.524,0-0.941-0.175-1.253-0.525C282.293,13.614,282.138,13.159,282.138,12.599z M282.885,12.555
			c0,0.41,0.092,0.73,0.273,0.959s0.432,0.344,0.747,0.344c0.325,0,0.577-0.119,0.755-0.356c0.177-0.238,0.266-0.57,0.266-0.996
			c0-0.423-0.089-0.747-0.266-0.972c-0.178-0.225-0.422-0.337-0.73-0.337c-0.332,0-0.59,0.12-0.771,0.359
			S282.885,12.129,282.885,12.555z"/>
	</g>
</g>
<g>
	<circle fill-rule="evenodd" clip-rule="evenodd" fill="#FFFFFF" cx="11.752" cy="11.496" r="2.25"/>
	<circle fill-rule="evenodd" clip-rule="evenodd" fill="#FFFFFF" cx="17.262" cy="11.496" r="2.25"/>
	<circle fill-rule="evenodd" clip-rule="evenodd" fill="#FFFFFF" cx="22.77" cy="11.496" r="2.25"/>
	<circle fill-rule="evenodd" clip-rule="evenodd" fill="#FFFFFF" cx="28.279" cy="11.496" r="2.25"/>
	<circle fill-rule="evenodd" clip-rule="evenodd" fill="#FFFFFF" cx="33.789" cy="11.496" r="2.25"/>
</g>
<path fill-rule="evenodd" clip-rule="evenodd" fill="#FFFFFF" d="M311.752,5.555h-21.348c-0.739,0-1.339,0.63-1.339,1.409v6.722
	c0,0.779,0.6,1.408,1.339,1.408h21.348c0.739,0,1.339-0.629,1.339-1.408V6.964C313.091,6.186,312.491,5.555,311.752,5.555z
	 M312.537,13.348c0,0.701-0.572,1.269-1.278,1.269h-20.361c-0.706,0-1.278-0.567-1.278-1.269V7.301c0-0.7,0.572-1.267,1.278-1.267
	h20.361c0.706,0,1.278,0.567,1.278,1.267V13.348z"/>
<rect x="290.568" y="6.678" fill-rule="evenodd" clip-rule="evenodd" fill="#FFFFFF" width="21.021" height="7.293"/>
<rect x="312.537" y="8.826" fill-rule="evenodd" clip-rule="evenodd" fill="#FFFFFF" width="1.533" height="2.994"/>
</svg>
