<?xml version="1.0" encoding="UTF-8"?>
<svg width="62px" height="26px" viewBox="0 0 62 26" version="1.1" xmlns="http://www.w3.org/2000/svg" xmlns:xlink="http://www.w3.org/1999/xlink">
    <!-- Generator: Sketch 52.6 (67491) - http://www.bohemiancoding.com/sketch -->
    <title>分组 4</title>
    <desc>Created with Sketch.</desc>
    <defs>
        <linearGradient x1="50%" y1="0%" x2="50%" y2="100%" id="linearGradient-1">
            <stop stop-color="#0E69B7" offset="0%"></stop>
            <stop stop-color="#1F348A" offset="29.0058614%"></stop>
            <stop stop-color="#261A73" offset="52.0796118%"></stop>
            <stop stop-color="#1850A1" offset="78.2346983%"></stop>
            <stop stop-color="#1061B0" offset="100%"></stop>
        </linearGradient>
        <path d="M12.9353506,0.208968596 C5.79116605,0.208968596 0,5.95901208 0,13.0514517 C0,20.1443455 5.79116605,25.8939347 12.9353506,25.8939347 C17.729941,25.8939347 21.9125387,23.3018156 24.1465978,19.4538406 L16.9415572,15.378953 C16.135786,16.7436088 14.6436679,17.660572 12.9353506,17.660572 C10.3713875,17.660572 8.29290037,15.5970072 8.29290037,13.0514517 C8.29290037,10.5058962 10.3713875,8.44255842 12.9353506,8.44255842 C14.6740959,8.44255842 16.1890923,9.39245697 16.9841107,10.7975436 L24.1230332,6.60840471 C21.8830258,2.78268942 17.7132399,0.208968596 12.9353506,0.208968596 Z" id="path-2"></path>
        <linearGradient x1="49.9993096%" y1="-0.000353114221%" x2="49.9993096%" y2="99.9998607%" id="linearGradient-4">
            <stop stop-color="#FDF401" offset="0%"></stop>
            <stop stop-color="#F2B80B" offset="100%"></stop>
        </linearGradient>
    </defs>
    <g id="Page-1" stroke="none" stroke-width="1" fill="none" fill-rule="evenodd">
        <g id="分组-4" transform="translate(-18.000000, 0.000000)">
            <rect id="矩形-copy" fill-rule="nonzero" x="0" y="0" width="95" height="26"></rect>
            <g id="分组-copy-2" transform="translate(18.000000, 0.000000)">
                <g id="分组-2">
                    <g id="分组" transform="translate(0.000000, 0.017944)">
                        <mask id="mask-3" fill="white">
                            <use xlink:href="#path-2"></use>
                        </mask>
                        <use id="Clip-2" fill="url(#linearGradient-1)" xlink:href="#path-2"></use>
                        <path d="M12.9353506,0.208968596 C5.79116605,0.208968596 0,5.95901208 0,13.0514517 C0,20.1443455 5.79116605,25.8939347 12.9353506,25.8939347 C17.729941,25.8939347 21.9125387,23.3018156 24.1465978,19.4538406 L16.9415572,15.378953 C16.135786,16.7436088 14.6436679,17.660572 12.9353506,17.660572 C10.3713875,17.660572 8.29290037,15.5970072 8.29290037,13.0514517 C8.29290037,10.5058962 10.3713875,8.44255842 12.9353506,8.44255842 C14.6740959,8.44255842 16.1890923,9.39245697 16.9841107,10.7975436 L24.1230332,6.60840471 C21.8830258,2.78268942 17.7132399,0.208968596 12.9353506,0.208968596 Z" id="Fill-1" mask="url(#mask-3)"></path>
                    </g>
                    <g id="分组" transform="translate(12.984906, 1.991158)">
                        <g transform="translate(0.055685, 0.071044)" fill="url(#linearGradient-4)" id="Fill-3" opacity="0.699660528">
                            <path d="M11.1060074,21.9714579 C13.9323838,19.1653731 15.6805092,15.2890056 15.6805092,11.0071937 C15.6805092,6.7253817 13.9323838,2.84901424 11.1060074,0.0431565579 L0.0626863469,11.0071937 L11.1060074,21.9714579 Z"></path>
                        </g>
                        <path d="M44.2316914,2.56867272 L48.6835659,2.56867272 L48.6835659,4.11685745 L38.4510493,4.11685745 C38.3156102,7.52281843 38.7006508,10.9165139 37.0717209,14.1448515 C36.5601637,13.7241887 36.1154109,13.3584936 35.6134626,12.9457806 C37.168267,9.65679664 36.5510124,6.12999731 36.7399866,2.59274954 L41.8143777,2.59274954 C41.8521268,2.19003071 41.8811822,1.88021205 41.917101,1.49521013 C42.6309017,1.34825069 43.3508796,1.19992842 44.1479571,1.03570636 C44.1767836,1.56403348 44.2008058,2.00491179 44.2316914,2.56867272" id="Fill-5" fill="#000000"></path>
                        <path d="M38.3105999,13.5268269 L38.3105999,11.7015316 L39.8237659,11.7015316 C41.2163637,11.7015316 42.6096478,11.6751834 44.0011017,11.7144786 C44.5247844,11.7292427 44.7599726,11.5577522 44.8947253,11.0664488 C45.3646442,9.35290633 45.8684228,7.64867658 46.3607622,5.94103972 C46.4472419,5.64076094 46.5412715,5.34229927 46.6485704,4.98659838 C47.2596478,5.15150185 47.8110132,5.30027841 48.4335298,5.46813471 C47.7979726,7.56440772 47.1862087,9.58299893 46.5497364,11.6822248 L48.6957143,11.6822248 C48.7586294,11.8078331 48.817884,11.8750664 48.8249763,11.9472969 C48.9780316,13.5265998 48.9768877,13.5265998 47.3911977,13.5265998 C44.6865335,13.5265998 41.9816405,13.5268269 39.2769763,13.5268269 L38.3105999,13.5268269 Z" id="Fill-7" fill="#000000"></path>
                        <polygon id="Fill-9" fill="#000000" points="20.1683932 8.40684644 33.0705704 8.40684644 33.0705704 6.61516787 20.1683932 6.61516787"></polygon>
                        <path d="M40.8172759,16.8255779 L41.9136006,16.8255779 L41.9136006,20.9701974 C40.9744493,21.234361 40.2796375,21.0515135 39.746346,20.1767982 C39.2814604,19.4145171 38.6671799,18.7417291 37.9778589,17.8461169 L37.9778589,20.9960914 L36.8266264,20.9960914 L36.8266264,16.9116639 C38.1128405,16.6007095 38.2736744,16.6590844 39.0268257,17.678942 C39.5326633,18.3642228 40.0426191,19.0465507 40.554405,19.7277428 C40.5823165,19.7649938 40.6415711,19.7788493 40.8172759,19.875838 L40.8172759,16.8255779 Z" id="Fill-11" fill="#000000"></path>
                        <path d="M27.889498,21.0157844 L26.7778449,21.0157844 L26.7778449,16.8611707 C27.7046419,16.6692376 28.4667157,16.6933144 29.0082434,17.6681983 C29.4385829,18.442745 30.0592692,19.1130345 30.7421844,20.025455 L30.7421844,16.8516308 L31.8792323,16.8516308 L31.8792323,20.9699022 C30.9803467,21.1984048 30.2880515,21.0961919 29.7588781,20.2321522 C29.2793504,19.4492013 28.6444796,18.7598321 27.889498,18.0584245 L27.889498,21.0157844 Z" id="Fill-12" fill="#000000"></path>
                        <path d="M48.9359128,17.0460625 C48.7501416,17.1732608 48.572149,17.3951763 48.3769977,17.4113032 C47.5529239,17.4796723 46.71947,17.4451471 45.897684,17.527826 C45.1024368,17.6077792 44.7437061,18.0890883 44.7620087,18.8858947 C44.7830567,19.8003594 45.1811379,20.2671317 46.0276323,20.3159667 C46.5298095,20.3450406 47.0349608,20.3214181 47.594791,20.3214181 L47.594791,19.2724866 C47.2413224,19.2545425 46.871839,19.2727137 46.5202006,19.2025275 C46.3408353,19.1666395 46.1934995,18.9719807 46.0317504,18.849098 C46.1848058,18.7514279 46.334887,18.5753946 46.491374,18.569489 C47.2591674,18.5401879 48.028791,18.5560877 48.8386803,18.5560877 L48.8386803,21.120723 C47.4753667,21.0387255 46.0958095,21.0350913 44.7430198,20.8447481 C43.9102523,20.727544 43.4668722,19.9087051 43.4595512,18.959488 C43.4515438,17.9546216 43.8670124,17.1564524 44.7613224,17.0140358 C46.0900899,16.8027958 47.4522597,16.8007515 48.8002449,16.7098956 C48.8455438,16.8218755 48.8906139,16.9340826 48.9359128,17.0460625" id="Fill-13" fill="#000000"></path>
                        <path d="M21.7983984,18.5591768 L24.9885386,18.5591768 C25.2154906,19.1367933 25.0134759,19.2989711 24.5106124,19.2878412 C23.6314021,19.2685344 22.7515054,19.282617 21.8356899,19.282617 C21.8155571,20.0533023 22.2950847,20.2486425 22.8469076,20.3011118 C23.4049076,20.3540354 23.9748043,20.2924805 24.5307453,20.3560796 C24.7567822,20.3817464 24.9597121,20.6054791 25.1731659,20.7392644 C25.1271807,20.8639642 25.0814242,20.988891 25.035439,21.1135908 C23.9317932,21.0300033 22.8132766,21.0288676 21.7286198,20.8371617 C20.8217268,20.6770281 20.3216087,19.747345 20.3973357,18.7338473 C20.4703172,17.759872 21.1591807,16.9430773 22.1427157,16.838593 C22.9905829,16.7488728 23.8544648,16.7906665 24.7105681,16.8070206 C24.8361696,16.809292 24.9581106,16.9935023 25.081653,17.0934438 C24.9384353,17.2042881 24.8034537,17.3964483 24.650856,17.4112124 C23.986701,17.4761744 23.3154537,17.4668616 22.65107,17.5288708 C22.0978744,17.5804315 21.7887895,17.8954744 21.7983984,18.5591768" id="Fill-14" fill="#000000"></path>
                        <path d="M38.6096641,5.96434427 C39.1239667,5.74401868 39.6041807,5.53823004 40.153487,5.30291323 C40.8782692,7.05257094 41.5838338,8.75589214 42.322343,10.5387123 C41.7133246,10.7615364 41.1804906,10.9566495 40.5952656,11.1708423 C39.9267637,9.4180046 39.2799962,7.72217901 38.6096641,5.96434427" id="Fill-15" fill="#000000"></path>
                        <path d="M41.9480095,5.26395876 C42.5103563,5.0997367 42.9853084,4.96095429 43.5501718,4.79582368 C44.0615002,6.37240088 44.5572715,7.90150587 45.0514412,9.4251595 C43.3511312,10.0986289 43.3497585,10.0990832 42.8880759,8.51546469 C42.5787622,7.45494906 42.274253,6.39284346 41.9480095,5.26395876" id="Fill-16" fill="#000000"></path>
                        <polygon id="Fill-17" fill="#000000" points="33.8340168 20.9924344 34.8587327 20.9924344 34.8587327 16.8144253 33.8340168 16.8144253"></polygon>
                    </g>
                </g>
            </g>
        </g>
    </g>
</svg>