<?xml version="1.0" encoding="UTF-8"?>
<svg width="102px" height="43px" viewBox="0 0 102 43" version="1.1" xmlns="http://www.w3.org/2000/svg" xmlns:xlink="http://www.w3.org/1999/xlink">
    <!-- Generator: Sketch 52.6 (67491) - http://www.bohemiancoding.com/sketch -->
    <title>分组 5</title>
    <desc>Created with Sketch.</desc>
    <defs>
        <linearGradient x1="50%" y1="0%" x2="50%" y2="100%" id="linearGradient-1">
            <stop stop-color="#FFFFFF" offset="0%"></stop>
            <stop stop-color="#FFFFFF" stop-opacity="0.504189312" offset="29.0058614%"></stop>
            <stop stop-color="#FFFFFF" stop-opacity="0" offset="52.0796118%"></stop>
            <stop stop-color="#FFFFFF" stop-opacity="0.496263587" offset="78.2346983%"></stop>
            <stop stop-color="#FFFFFF" offset="100%"></stop>
        </linearGradient>
        <path d="M21.284712,0.345780515 C9.52918137,0.345780515 0,9.86038239 0,21.5962482 C0,33.3328657 9.52918137,42.8467159 21.284712,42.8467159 C29.1740595,42.8467159 36.0563925,38.5575342 39.7324663,32.1902867 L27.8767989,25.4475666 C26.5509277,27.7056637 24.0956944,29.2229637 21.284712,29.2229637 C17.0657915,29.2229637 13.6457064,25.8083811 13.6457064,21.5962482 C13.6457064,17.3841154 17.0657915,13.9699086 21.284712,13.9699086 C24.1457628,13.9699086 26.6386415,15.5417066 27.9468193,17.8667047 L39.6936915,10.9349329 C36.0078299,4.60451857 29.1465784,0.345780515 21.284712,0.345780515 Z" id="path-2"></path>
        <linearGradient x1="49.9993096%" y1="-0.000353114221%" x2="49.9993096%" y2="99.9998607%" id="linearGradient-4">
            <stop stop-color="#FFFFFF" offset="0%"></stop>
            <stop stop-color="#FFFFFF" offset="100%"></stop>
        </linearGradient>
    </defs>
    <g id="Page-1" stroke="none" stroke-width="1" fill="none" fill-rule="evenodd">
        <g id="分组-5" transform="translate(-28.000000, 0.000000)">
            <rect id="矩形" fill-rule="nonzero" x="0" y="0" width="158" height="44"></rect>
            <g id="分组-copy" transform="translate(28.000000, 0.000000)">
                <g id="分组-2">
                    <g id="分组" transform="translate(0.000000, 0.029692)">
                        <mask id="mask-3" fill="white">
                            <use xlink:href="#path-2"></use>
                        </mask>
                        <use id="Clip-2" fill="url(#linearGradient-1)" xlink:href="#path-2"></use>
                        <path d="M21.284712,0.345780515 C9.52918137,0.345780515 0,9.86038239 0,21.5962482 C0,33.3328657 9.52918137,42.8467159 21.284712,42.8467159 C29.1740595,42.8467159 36.0563925,38.5575342 39.7324663,32.1902867 L27.8767989,25.4475666 C26.5509277,27.7056637 24.0956944,29.2229637 21.284712,29.2229637 C17.0657915,29.2229637 13.6457064,25.8083811 13.6457064,21.5962482 C13.6457064,17.3841154 17.0657915,13.9699086 21.284712,13.9699086 C24.1457628,13.9699086 26.6386415,15.5417066 27.9468193,17.8667047 L39.6936915,10.9349329 C36.0078299,4.60451857 29.1465784,0.345780515 21.284712,0.345780515 Z" id="Fill-1" mask="url(#mask-3)"></path>
                    </g>
                    <g id="分组" transform="translate(21.366253, 3.294771)">
                        <g transform="translate(0.091627, 0.117556)" fill="url(#linearGradient-4)" id="Fill-3" opacity="0.752720424">
                            <path d="M18.2745854,36.3561902 C22.9252988,31.7129592 25.8017842,25.2987307 25.8017842,18.2136128 C25.8017842,11.1284948 22.9252988,4.7142663 18.2745854,0.0714111932 L0.10314841,18.2136128 L18.2745854,36.3561902 Z"></path>
                        </g>
                        <path d="M72.7818553,4.25038495 L80.1072747,4.25038495 L80.1072747,6.81216754 L63.2699908,6.81216754 C63.04713,12.4480141 63.6807022,18.0635648 61.0003494,23.4054979 C60.1585981,22.7094267 59.4267714,22.1043108 58.6008312,21.4213943 C61.159213,15.9791097 60.1435399,10.1433118 60.454491,4.29022488 L68.8042418,4.29022488 C68.8663567,3.62384569 68.9141664,3.11118849 68.9732697,2.47412548 C70.1478063,2.23095157 71.3325072,1.98552258 72.6440731,1.7137842 C72.6915063,2.58800754 72.731034,3.31752926 72.7818553,4.25038495" id="Fill-5" fill="#FFFFFF"></path>
                        <path d="M63.0388857,22.382852 L63.0388857,19.3625344 L65.5287528,19.3625344 C67.8202286,19.3625344 70.1128338,19.318936 72.4024273,19.3839578 C73.2641306,19.4083879 73.6511254,19.1246224 73.8728568,18.3116623 C74.6460934,15.4762621 75.4750452,12.6562717 76.2851744,9.83064351 C76.427474,9.33377194 76.5821966,8.83990717 76.7587536,8.25132859 C77.7642623,8.52419452 78.6715166,8.77037521 79.6958481,9.04812717 C78.6500587,12.5168319 77.6434206,15.8569965 76.5961254,19.3305873 L80.1272644,19.3305873 C80.2307893,19.5384315 80.3282909,19.6496826 80.3399609,19.7692024 C80.5918087,22.3824762 80.5899264,22.3824762 77.9807234,22.3824762 C73.5302836,22.3824762 69.0794674,22.382852 64.6290276,22.382852 L63.0388857,22.382852 Z" id="Fill-7" fill="#FFFFFF"></path>
                        <polygon id="Fill-9" fill="#FFFFFF" points="33.186456 13.910816 54.4165821 13.910816 54.4165821 10.9461239 33.186456 10.9461239"></polygon>
                        <path d="M67.1635421,27.8412981 L68.9675099,27.8412981 L68.9675099,34.6994036 C67.4221661,35.1365153 66.2788751,34.8339573 65.4013607,33.3865652 C64.6364061,32.125218 63.625627,31.0119551 62.4913709,29.5299849 L62.4913709,34.7422503 L60.5970541,34.7422503 L60.5970541,27.9837447 C62.7134788,27.4692082 62.978126,27.5658013 64.2174127,29.2533605 C65.0497526,30.3872951 65.8888687,31.5163436 66.7309964,32.643513 C66.7769238,32.7051521 66.8744254,32.7280788 67.1635421,32.8885661 L67.1635421,27.8412981 Z" id="Fill-11" fill="#FFFFFF"></path>
                        <path d="M45.8912908,34.7748364 L44.0621005,34.7748364 L44.0621005,27.9001936 C45.5871159,27.5826017 46.8410843,27.6224416 47.7321511,29.2355829 C48.4402611,30.5172259 49.461581,31.6263545 50.5852963,33.1361374 L50.5852963,27.8844079 L52.4562729,27.8844079 L52.4562729,34.698915 C50.977185,35.0770185 49.838035,34.9078867 48.9672968,33.4781595 C48.1782491,32.1826101 47.1335891,31.0419102 45.8912908,29.8812904 L45.8912908,34.7748364 Z" id="Fill-12" fill="#FFFFFF"></path>
                        <path d="M80.5225035,28.2061342 C80.2168228,28.4166093 79.9239416,28.7838131 79.6028263,28.8104984 C78.2468388,28.9236287 76.8754167,28.8664998 75.5231937,29.0033086 C74.2146394,29.1356072 73.6243595,29.9320299 73.6544758,31.2505061 C73.6891096,32.7636717 74.3441396,33.5360401 75.7370196,33.6168475 C76.5633363,33.6649561 77.3945468,33.6258679 78.3157299,33.6258679 L78.3157299,31.8902 C77.7341084,31.860508 77.1261351,31.8905759 76.5475252,31.7744387 C76.2523852,31.7150547 76.0099488,31.3929526 75.7437958,31.1896186 C75.9956435,31.0280038 76.2425974,30.7367213 76.500092,30.7269493 C77.7634718,30.6784648 79.0298632,30.7047742 80.3625105,30.7047742 L80.3625105,34.9484783 C78.1192208,34.8127971 75.8492029,34.8067835 73.6232301,34.4918226 C72.2529374,34.2978848 71.5233694,32.9429514 71.5113229,31.372281 C71.498147,29.7095277 72.1817876,28.3887965 73.6533464,28.1531395 C75.8397916,27.8036005 78.081199,27.8002179 80.2992663,27.6498786 C80.3738042,27.8351718 80.4479656,28.0208409 80.5225035,28.2061342" id="Fill-13" fill="#FFFFFF"></path>
                        <path d="M35.8685781,30.7098858 L41.1178534,30.7098858 C41.4912958,31.6656682 41.1588869,31.934024 40.3314409,31.9156074 C38.884728,31.8836603 37.4368857,31.9069629 35.9299401,31.9069629 C35.8968122,33.1822164 36.6858599,33.5054461 37.593867,33.592267 C38.5120385,33.6798397 39.4497855,33.5779848 40.3645689,33.6832223 C40.7365055,33.7256932 41.0704202,34.0959039 41.4216518,34.3172786 C41.3459846,34.5236193 41.2706938,34.7303359 41.1950265,34.9366767 C39.3790122,34.7983645 37.5385283,34.7964853 35.7537596,34.4792692 C34.2614958,34.2142961 33.4385672,32.6759487 33.5631735,30.9989132 C33.6832624,29.3872753 34.8167655,28.0357245 36.4351415,27.8628342 C37.8302802,27.7143741 39.2517707,27.7835302 40.6604617,27.8105913 C40.867135,27.8143498 41.067785,28.1191628 41.2710702,28.2845361 C41.03541,28.4679501 40.8133021,28.7859179 40.5622072,28.810348 C39.4693611,28.9178407 38.3648449,28.9024309 37.2716224,29.0050375 C36.3613565,29.0903551 35.8527671,29.6116568 35.8685781,30.7098858" id="Fill-14" fill="#FFFFFF"></path>
                        <path d="M63.5309864,9.86920555 C64.3772551,9.50463262 65.1674322,9.16411398 66.0712984,8.77473506 C67.2639048,11.6698952 68.4248891,14.4883822 69.6400828,17.4384162 C68.6379621,17.8071235 67.7612006,18.1299772 66.7982311,18.4844022 C65.6982324,15.5839803 64.6339968,12.7778962 63.5309864,9.86920555" id="Fill-15" fill="#FFFFFF"></path>
                        <path d="M69.0241286,8.71027706 C69.9494527,8.43853868 70.7309713,8.20889531 71.6604364,7.93565354 C72.5018112,10.5444172 73.3175871,13.0746285 74.1307278,15.5958195 C71.3329213,16.7102099 71.3306626,16.7109616 70.5709783,14.0905467 C70.0620125,12.3357106 69.5609521,10.5782435 69.0241286,8.71027706" id="Fill-16" fill="#FFFFFF"></path>
                        <polygon id="Fill-17" fill="#FFFFFF" points="55.6728093 34.7361992 57.358947 34.7361992 57.358947 27.822844 55.6728093 27.822844"></polygon>
                    </g>
                </g>
            </g>
        </g>
    </g>
</svg>