<?xml version="1.0" encoding="UTF-8"?>
<svg width="16px" height="16px" viewBox="0 0 16 16" version="1.1" xmlns="http://www.w3.org/2000/svg" xmlns:xlink="http://www.w3.org/1999/xlink">
    <!-- Generator: Sketch 52.6 (67491) - http://www.bohemiancoding.com/sketch -->
    <title> </title>
    <desc>Created with Sketch.</desc>
    <g id="-" stroke="none" stroke-width="1" fill="none" fill-rule="evenodd">
        <path d="M13,3 L7,3 L7,12 C7,12.353 6.928,12.686 6.816,13 L12,13 C12.551,13 13,12.551 13,12 L13,3 Z M4,13 C4.551,13 5,12.551 5,12 L5,5 L3,5 L3,13 L4,13 Z M15,1 L15,12 C15,13.657 13.657,15 12,15 L1,15 L1,3 L5,3 L5,1 L15,1 Z M8,10 L12,10 L12,8 L8,8 L8,10 Z M8,7 L12,7 L12,5 L8,5 L8,7 Z" id="Fill-1" fill="#888888"></path>
    </g>
</svg>