<?xml version="1.0" encoding="UTF-8"?>
<svg width="16px" height="16px" viewBox="0 0 16 16" version="1.1" xmlns="http://www.w3.org/2000/svg" xmlns:xlink="http://www.w3.org/1999/xlink">
    <!-- Generator: Sketch 52.6 (67491) - http://www.bohemiancoding.com/sketch -->
    <title>公众号小程序配置</title>
    <desc>Created with Sketch.</desc>
    <g id="公众号小程序配置" stroke="none" stroke-width="1" fill="none" fill-rule="evenodd">
        <path d="M5.50201042,6.74798958 C4.81220964,6.74798958 4.25301563,6.18879557 4.25301563,5.49899479 C4.25301563,4.80919402 4.81220964,4.25 5.50201042,4.25 C6.19181119,4.25 6.75100521,4.80919402 6.75100521,5.49899479 C6.75100521,6.18879557 6.19181119,6.74798958 5.50201042,6.74798958 Z M10.4979896,6.74798958 C9.80818881,6.74798958 9.24899479,6.18879557 9.24899479,5.49899479 C9.24899479,4.80919402 9.80818881,4.25 10.4979896,4.25 C11.1877904,4.25 11.7469844,4.80919402 11.7469844,5.49899479 C11.7469844,6.18879557 11.1877904,6.74798958 10.4979896,6.74798958 Z M10.3447781,13.6945214 C9.60323537,13.8931321 8.81588073,14 8,14 C3.581722,14 0,10.8659932 0,7 C0,3.13400675 3.581722,0 8,0 C12.418278,0 16,3.13400675 16,7 C16,9.24777988 14.7891865,11.2481092 12.9071281,12.5288654 L13.7310151,14.5885828 C13.7925491,14.7424178 13.7177243,14.917009 13.5638893,14.978543 C13.4900151,15.0080927 13.407428,15.0070857 13.3342963,14.9757435 L10.3447781,13.6945214 Z M8,12 C11.3686986,12 14,9.69761131 14,7 C14,4.30238869 11.3686986,2 8,2 C4.63130136,2 2,4.30238869 2,7 C2,9.69761131 4.63130136,12 8,12 Z" id="Combined-Shape" fill="#444444"></path>
    </g>
</svg>