<?xml version="1.0" encoding="UTF-8"?>
<svg width="14px" height="14px" viewBox="0 0 14 14" version="1.1" xmlns="http://www.w3.org/2000/svg" xmlns:xlink="http://www.w3.org/1999/xlink">
    <!-- Generator: Sketch 52.6 (67491) - http://www.bohemiancoding.com/sketch -->
    <title>Group 20</title>
    <desc>Created with Sketch.</desc>
    <g id="Page-1" stroke="none" stroke-width="1" fill="none" fill-rule="evenodd">
        <g id="画板-copy" transform="translate(-26.000000, -63.000000)">
            <g id="Group-20" transform="translate(25.000000, 62.000000)">
                <rect id="Rectangle-Copy" fill="#444444" opacity="0" x="0" y="0" width="16" height="16"></rect>
                <path d="M9,7 L15,7 L15,1 L9,1 L9,7 Z M11,5 L13,5 L13,3 L11,3 L11,5 Z M1,7 L7,7 L7,1 L1,1 L1,7 Z M9,15 L15,15 L15,9 L9,9 L9,15 Z M1,15 L7,15 L7,9 L1,9 L1,15 Z M3,13 L5,13 L5,11 L3,11 L3,13 Z" id="Fill-1-Copy" fill="#888888"></path>
            </g>
        </g>
    </g>
</svg>