<?xml version="1.0" encoding="UTF-8"?>
<svg width="16px" height="16px" viewBox="0 0 16 16" version="1.1" xmlns="http://www.w3.org/2000/svg" xmlns:xlink="http://www.w3.org/1999/xlink">
    <!-- Generator: Sketch 55.2 (78181) - https://sketchapp.com -->
    <title>wallet-hover</title>
    <desc>Created with Sketch.</desc>
    <g id="wallet-hover" stroke="none" stroke-width="1" fill="none" fill-rule="evenodd">
        <g id="编组">
            <rect id="矩形" fill="#D8D8D8" opacity="0" x="0" y="0" width="16" height="16"></rect>
            <path d="M3,6 L3,13 L13,13 L13,6 L3,6 Z M1,4 L15,4 L15,15 L1,15 L1,4 Z M11,4 L11,3 L3,3 L3,4 L11,4 Z M3,1 L13,1 L13,6 L3,6 C1.8954305,6 1,5.1045695 1,4 L1,3 C1,1.8954305 1.8954305,1 3,1 Z M10,8 L12,8 L12,11 L10,11 L10,8 Z" id="Rectangle-Copy" fill="#006EFF" fill-rule="nonzero"></path>
        </g>
    </g>
</svg>