<?xml version="1.0" encoding="UTF-8"?>
<svg width="16px" height="16px" viewBox="0 0 16 16" version="1.1" xmlns="http://www.w3.org/2000/svg" xmlns:xlink="http://www.w3.org/1999/xlink">
    <!-- Generator: Sketch 52.6 (67491) - http://www.bohemiancoding.com/sketch -->
    <title>  copy</title>
    <desc>Created with Sketch.</desc>
    <g id="--copy" stroke="none" stroke-width="1" fill="none" fill-rule="evenodd">
        <path d="M8.42820323,11.5 C10.3611999,11.5 11.9282032,9.93299662 11.9282032,8 C11.9282032,6.06700338 10.3611999,4.5 8.42820323,4.5 C6.49520661,4.5 4.92820323,6.06700338 4.92820323,8 C4.92820323,9.93299662 6.49520661,11.5 8.42820323,11.5 Z M12.1146694,12.0817216 C11.5450935,12.5964647 10.8672652,12.993667 10.1194334,13.2350793 L9.42820323,16 L7.42820323,16 L6.73697304,13.2350793 C5.98914126,12.993667 5.31131295,12.5964647 4.74173706,12.0817216 L2,12.8660254 L1,11.1339746 L3.04917104,9.15260654 C2.96991267,8.78091979 2.92820323,8.39533078 2.92820323,8 C2.92820323,7.60466922 2.96991267,7.21908021 3.04917104,6.84739346 L1,4.8660254 L2,3.1339746 L4.74173706,3.91827845 C5.31131295,3.40353526 5.98914126,3.00633304 6.73697304,2.76492074 L7.42820323,0 L9.42820323,0 L10.1194334,2.76492074 C10.8672652,3.00633304 11.5450935,3.40353526 12.1146694,3.91827845 L14.8564065,3.1339746 L15.8564065,4.8660254 L13.8072354,6.84739346 C13.8864938,7.21908021 13.9282032,7.60466922 13.9282032,8 C13.9282032,8.39533078 13.8864938,8.78091979 13.8072354,9.15260654 L15.8564065,11.1339746 L14.8564065,12.8660254 L12.1146694,12.0817216 Z" id="Combined-Shape" fill="#888888" fill-rule="nonzero"></path>
    </g>
</svg>