<?xml version="1.0" encoding="UTF-8"?>
<svg width="95px" height="26px" viewBox="0 0 95 26" version="1.1" xmlns="http://www.w3.org/2000/svg" xmlns:xlink="http://www.w3.org/1999/xlink">
    <!-- Generator: Sketch 52.6 (67491) - http://www.bohemiancoding.com/sketch -->
    <title>haina_logo_all_white</title>
    <desc>Created with Sketch.</desc>
    <defs>
        <linearGradient x1="-5.04331797%" y1="1.24414414%" x2="108.774194%" y2="1.24414414%" id="linearGradient-1">
            <stop stop-color="#0075FF" stop-opacity="0.498245018" offset="0%"></stop>
            <stop stop-color="#0075FF" offset="100%"></stop>
        </linearGradient>
    </defs>
    <g id="Page-1" stroke="none" stroke-width="1" fill="none" fill-rule="evenodd">
        <g id="画板-copy-28" transform="translate(-20.000000, -12.000000)">
            <g id="haina_logo_all_white" transform="translate(20.000000, 12.000000)">
                <path d="M42.2088608,17.1954545 L36.3164557,17.1954545 L36.3164557,18.4954545 L42.2088608,18.4954545 L42.2088608,17.1954545 Z M45.5158228,15.0681818 L45.5158228,13.7090909 C44.3132911,13.2363636 43.2911392,12.4090909 42.5696203,11.4045455 L44.8544304,11.4045455 L44.8544304,10.1045455 L40.7658228,10.1045455 C40.8860759,9.69090909 41.0063291,9.27727273 41.1265823,8.80454545 L44.8544304,8.80454545 L44.8544304,7.50454545 L43.8924051,7.50454545 L44.3132911,5.85 L42.9905063,5.85 L42.5696203,7.50454545 L41.306962,7.50454545 L41.306962,5.90909091 L39.9841772,5.90909091 L39.9841772,7.38636364 C39.9841772,7.44545455 39.9841772,7.50454545 39.9841772,7.56363636 L38.6613924,7.56363636 L38.1202532,5.90909091 L36.7974684,5.90909091 L37.2183544,7.56363636 L36.3164557,7.56363636 L36.3164557,8.86363636 L39.7436709,8.86363636 C39.6234177,9.33636364 39.5031646,9.75 39.3227848,10.1636364 L36.3164557,10.1636364 L36.3164557,11.4636364 L38.6012658,11.4636364 C37.8797468,12.4681818 36.8575949,13.2363636 35.7151899,13.7681818 L35.7151899,5.90909091 L31.7468354,5.90909091 L31.7468354,17.1363636 C31.7468354,17.1363636 31.7468354,17.1954545 31.7468354,17.1954545 C31.7468354,18.1409091 31.3860759,18.9681818 30.7246835,19.6181818 L31.6265823,20.5045455 C32.4683544,19.6772727 33.0094937,18.4954545 33.0094937,17.1954545 C33.0094937,17.1954545 33.0094937,17.1363636 33.0094937,17.1363636 L33.0094937,15.3045455 L34.3924051,15.3045455 L34.3924051,18.5545455 C34.3924051,18.9090909 34.0917722,19.2045455 33.7310127,19.2045455 L33.4905063,19.2045455 L33.4905063,20.5045455 L33.8512658,20.5045455 C34.8734177,20.4454545 35.6550633,19.6181818 35.6550633,18.6136364 L35.6550633,15.0681818 C36.4367089,14.7727273 37.1582278,14.4181818 37.8196203,13.9454545 L37.8196203,14.0045455 L42.1487342,14.0045455 L42.1487342,15.3045455 L38.2405063,15.3045455 L38.2405063,14.7136364 L36.9177215,14.7136364 L36.9177215,16.6045455 L43.4113924,16.6045455 L43.4113924,18.6727273 C43.4113924,19.0272727 43.1107595,19.3227273 42.75,19.3227273 L40.2848101,19.3227273 L40.2848101,20.6227273 L42.8702532,20.6227273 C43.8924051,20.6227273 44.7341772,19.7954545 44.7943038,18.7318182 L44.7943038,15.3636364 L43.471519,15.3636364 L43.471519,14.2409091 C44.1329114,14.4772727 44.7943038,14.8318182 45.5158228,15.0681818 Z M34.4525316,14.0045455 L33.0696203,14.0045455 L33.0696203,11.3454545 L34.4525316,11.3454545 L34.4525316,14.0045455 Z M34.4525316,10.1045455 L33.0696203,10.1045455 L33.0696203,7.15 L34.4525316,7.15 L34.4525316,10.1045455 Z M39.2626582,12.6454545 C39.6234177,12.2318182 39.9240506,11.8181818 40.164557,11.3454545 L41.0063291,11.3454545 C41.2468354,11.8181818 41.5474684,12.2318182 41.9082278,12.6454545 L39.2626582,12.6454545 Z" id="形状" fill="#000000"></path>
                <path d="M50.1455696,7.8 L48.2816456,5.96818182 L47.3797468,6.85454545 L49.2436709,8.68636364 L50.1455696,7.8 Z M49.9050633,18.4363636 L49.9050633,10.2227273 L47.3196203,10.2227273 L47.3196203,11.5227273 L48.6424051,11.5227273 L48.6424051,19.2045455 L48.0411392,19.5590909 L48.7025316,20.6818182 L52.0696203,18.7909091 L51.4082278,17.6681818 L49.9050633,18.4363636 Z M60.2468354,17.4318182 L60.2468354,5.96818182 L51.2278481,5.96818182 L51.2278481,7.26818182 L53.8132911,7.26818182 L53.8132911,11.4636364 L51.2278481,11.4636364 L51.2278481,12.7636364 L53.8132911,12.7636364 L53.8132911,20.5636364 L55.1360759,20.5636364 L55.1360759,12.7636364 L58.9841772,12.7636364 L58.9841772,17.4318182 C58.9841772,19.2045455 60.4272152,20.5636364 62.1708861,20.5636364 L62.1708861,19.2636364 C61.0886076,19.3227273 60.2468354,18.4363636 60.2468354,17.4318182 Z M58.9240506,11.4636364 L55.0759494,11.4636364 L55.0759494,7.26818182 L58.9240506,7.26818182 L58.9240506,11.4636364 Z" id="形状" fill="#000000"></path>
                <path d="M66.4398734,8.21363636 L64.0949367,5.90909091 L63.193038,6.79545455 L65.5379747,9.1 L66.4398734,8.21363636 Z M66.1392405,12.5863636 L63.7943038,10.2818182 L62.8924051,11.1681818 L65.2373418,13.4727273 L66.1392405,12.5863636 Z M67.0411392,11.7590909 C67.8829114,10.8136364 68.5443038,9.69090909 69.0253165,8.50909091 L77.3829114,8.50909091 L77.3829114,7.20909091 L69.4462025,7.20909091 C69.5664557,6.79545455 69.6265823,6.38181818 69.6867089,5.90909091 L68.3639241,5.90909091 C68.0632911,7.74090909 67.221519,9.39545455 66.0791139,10.7545455 L67.0411392,11.7590909 Z M77.9841772,14.5363636 L77.9841772,13.2363636 L76.6613924,13.2363636 L76.6613924,9.80909091 L68.4841772,9.80909091 L67.8829114,13.2363636 L66.6803797,13.2363636 L66.6803797,14.5363636 L67.7025316,14.5363636 L67.1012658,17.9636364 L75.4588608,17.9636364 L75.4588608,18.5545455 C75.4588608,18.5545455 75.4588608,18.5545455 75.4588608,18.6136364 C75.4588608,18.9681818 75.1582278,19.2636364 74.7974684,19.2636364 L71.4905063,19.2636364 L71.4905063,20.5636364 L74.8575949,20.5636364 C75.9398734,20.5636364 76.7816456,19.6772727 76.7816456,18.6727273 C76.7816456,18.6727273 76.7816456,18.6727273 76.7816456,18.6136364 L76.7816456,18.0227273 L77.5632911,18.0227273 L77.5632911,16.7227273 L76.7816456,16.7227273 L76.7816456,14.5363636 L77.9841772,14.5363636 Z M69.6265823,11.05 L70.8892405,11.05 L72.1518987,13.2363636 L71.3702532,13.2363636 L69.2056962,13.2363636 L69.6265823,11.05 Z M68.6044304,16.7227273 L69.0253165,14.5363636 L70.6487342,14.5363636 L71.9113924,16.7227273 L68.6044304,16.7227273 Z M75.3987342,16.7227273 L73.414557,16.7227273 L72.1518987,14.5363636 L75.3987342,14.5363636 L75.3987342,16.7227273 Z M75.3987342,13.2363636 L73.6550633,13.2363636 L72.3924051,11.05 L75.3987342,11.05 L75.3987342,13.2363636 Z M63.1329114,20.5045455 L64.5158228,20.5045455 L66.5,15.1863636 L65.1170886,15.1863636 L63.1329114,20.5045455 Z" id="形状" fill="#000000"></path>
                <path d="M79.9683544,20.5045455 L84.2974684,20.5045455 L84.2974684,19.2045455 L79.9683544,19.2045455 L79.9683544,20.5045455 Z M84.1772152,5.90909091 L82.6740506,5.90909091 L79.9683544,10.4590909 L79.9683544,11.8181818 L82.8544304,11.8181818 L79.9683544,16.7227273 L79.9683544,18.0227273 L84.2974684,18.0227273 L84.2974684,16.7227273 L81.471519,16.7227273 L84.2974684,11.8772727 L84.2974684,10.5772727 L81.4113924,10.5772727 L84.1772152,5.90909091 Z M90.6107595,7.91818182 L90.6107595,5.90909091 L89.2879747,5.90909091 L89.2879747,7.85909091 L85.0189873,7.85909091 L85.0189873,20.5045455 L86.3417722,20.5045455 L86.3417722,9.15909091 L89.3481013,9.15909091 L89.3481013,10.1636364 C89.3481013,12.5863636 88.2658228,14.7136364 86.5221519,16.25 L87.1835443,17.3727273 C88.3860759,16.3681818 89.3481013,15.0681818 89.9493671,13.5909091 C90.5506329,15.0681818 91.5126582,16.3681818 92.7151899,17.3727273 L93.3765823,16.25 C91.693038,14.7727273 90.6107595,12.6454545 90.6107595,10.2227273 L90.6107595,9.21818182 L93.4968354,9.21818182 L93.4968354,18.6727273 C93.4968354,19.0272727 93.1962025,19.3227273 92.835443,19.3227273 L89.9493671,19.3227273 L89.9493671,20.6227273 L92.835443,20.6227273 C93.8575949,20.6227273 94.6993671,19.7954545 94.7594937,18.7318182 L94.7594937,7.91818182 L90.6107595,7.91818182 Z" id="形状" fill="#000000"></path>
                <g id="分组">
                    <path d="M26.3955696,13.4727273 C26.3955696,13.1181818 26.0949367,12.8818182 25.7943038,12.8818182 C25.5537975,12.8818182 25.3132911,13.0590909 25.2531646,13.2954545 L25.193038,13.2954545 C23.9303797,16.9590909 20.3829114,19.6181818 16.2341772,19.6181818 C12.1455696,19.6181818 8.65822785,17.0181818 7.33544304,13.4727273 L0.300632911,13.4727273 C0.420886076,20.4454545 6.19303797,26 13.3481013,26 C20.443038,26 26.2151899,20.4454545 26.3955696,13.5318182 C26.3955696,13.5318182 26.3955696,13.5318182 26.3955696,13.4727273 Z" id="路径" fill="url(#linearGradient-1)"></path>
                    <path d="M15.6329114,2.48181818 C15.6329114,1.3 14.6708861,0.354545455 13.4683544,0.354545455 C13.4683544,0.354545455 13.4082278,0.354545455 13.4082278,0.354545455 C13.3481013,0.354545455 13.2879747,0.354545455 13.2278481,0.354545455 C6.01265823,0.354545455 0.180379747,6.08636364 0.180379747,13.1772727 C0.180379747,20.2681818 6.01265823,26 13.2278481,26 C13.8291139,26 14.3702532,25.9409091 14.9113924,25.8818182 L13.4082278,25.8818182 L13.4082278,25.8227273 C9.80063291,25.8227273 6.91455696,22.9863636 6.91455696,19.4409091 C6.91455696,15.8954545 9.80063291,13.0590909 13.4082278,13.0590909 C13.4082278,13.0590909 13.4082278,13.0590909 13.4082278,13.0590909 C14.6107595,13.0590909 15.5727848,12.1136364 15.5727848,10.9318182 C15.5727848,10.2227273 15.2120253,9.57272727 14.6708861,9.21818182 C14.6708861,9.21818182 14.6708861,9.21818182 14.6708861,9.21818182 C14.5506329,9.1 14.4905063,8.98181818 14.4905063,8.80454545 C14.4905063,8.62727273 14.5506329,8.50909091 14.6708861,8.39090909 C14.6708861,8.39090909 14.6708861,8.39090909 14.6708861,8.39090909 C15.2120253,7.97727273 15.5727848,7.38636364 15.5727848,6.67727273 C15.5727848,5.96818182 15.2120253,5.31818182 14.6708861,4.96363636 C14.6708861,4.96363636 14.6708861,4.96363636 14.6708861,4.96363636 C14.5506329,4.84545455 14.4905063,4.72727273 14.4905063,4.55 C14.4905063,4.37272727 14.5506329,4.25454545 14.6708861,4.13636364 C14.6708861,4.13636364 14.6708861,4.13636364 14.6708861,4.13636364 C15.2721519,3.78181818 15.6329114,3.19090909 15.6329114,2.48181818 Z M13.528481,8.86363636 C13.528481,8.86363636 13.528481,8.80454545 13.528481,8.86363636 C13.4683544,8.86363636 13.4683544,8.86363636 13.4683544,8.86363636 C13.4683544,8.80454545 13.4683544,8.80454545 13.528481,8.86363636 C13.528481,8.80454545 13.528481,8.80454545 13.528481,8.86363636 Z M13.528481,4.60909091 C13.528481,4.60909091 13.528481,4.60909091 13.528481,4.60909091 C13.4683544,4.60909091 13.4683544,4.60909091 13.4683544,4.60909091 C13.4683544,4.60909091 13.4683544,4.60909091 13.528481,4.60909091 C13.528481,4.60909091 13.528481,4.60909091 13.528481,4.60909091 Z M19.5411392,2.30454545 C18.3386076,2.30454545 17.3765823,3.25 17.3765823,4.43181818 C17.3765823,5.61363636 18.3386076,6.55909091 19.5411392,6.55909091 C20.7436709,6.55909091 21.7056962,5.61363636 21.7056962,4.43181818 C21.7658228,3.25 20.7436709,2.30454545 19.5411392,2.30454545 Z M17.8575949,7.68181818 C17.2563291,7.68181818 16.7753165,8.15454545 16.7753165,8.74545455 C16.7753165,9.33636364 17.2563291,9.80909091 17.8575949,9.80909091 C18.4588608,9.80909091 18.9398734,9.33636364 18.9398734,8.74545455 C18.9398734,8.15454545 18.4588608,7.68181818 17.8575949,7.68181818 Z" id="形状" fill="#0075FF"></path>
                </g>
            </g>
        </g>
    </g>
</svg>