<?xml version="1.0" encoding="UTF-8"?>
<svg width="313px" height="248px" viewBox="0 0 313 248" version="1.1" xmlns="http://www.w3.org/2000/svg" xmlns:xlink="http://www.w3.org/1999/xlink">
    <!-- Generator: Sketch 52.6 (67491) - http://www.bohemiancoding.com/sketch -->
    <title>分组 4</title>
    <desc>Created with Sketch.</desc>
    <g id="页面1" stroke="none" stroke-width="1" fill="none" fill-rule="evenodd">
        <g id="02" transform="translate(-728.000000, -705.000000)">
            <g id="分组-4" transform="translate(728.000000, 705.000000)">
                <rect id="矩形复制-5" fill="#F2F2F2" x="0" y="0" width="313" height="248"></rect>
                <polygon id="Triangle-Copy-2复制-9" fill="#787878" transform="translate(27.000000, 52.500000) scale(1, -1) translate(-27.000000, -52.500000) " points="27 49 33 56 21 56"></polygon>
                <polygon id="Triangle-Copy-2复制-10" fill="#787878" transform="translate(51.000000, 88.500000) scale(1, -1) translate(-51.000000, -88.500000) " points="51 85 57 92 45 92"></polygon>
                <polygon id="Triangle-Copy-2复制-11" fill="#787878" transform="translate(75.000000, 119.500000) scale(1, -1) translate(-75.000000, -119.500000) " points="75 116 81 123 69 123"></polygon>
                <polygon id="Triangle-Copy-2复制-13" fill="#787878" transform="translate(99.000000, 154.500000) scale(1, -1) translate(-99.000000, -154.500000) " points="99 151 105 158 93 158"></polygon>
                <polygon id="Triangle-Copy-2复制-12" fill="#787878" transform="translate(51.000000, 223.500000) scale(1, -1) rotate(90.000000) translate(-51.000000, -223.500000) " points="51 220 57 227 45 227"></polygon>
                <path d="M27.5,61 L27.5,226" id="Path-15-Copy-2复制-7" stroke="#B8B8B8"></path>
                <path d="M51,94 L51,120.5" id="Path-15-Copy-2复制-8" stroke="#B8B8B8"></path>
                <path d="M75,127 L75,153.5" id="Path-15-Copy-2复制-9" stroke="#B8B8B8"></path>
                <path d="M99,161 L99,187.5" id="Path-15-Copy-2复制-10" stroke="#B8B8B8"></path>
                <path d="M27,87.5 L40,87.5" id="Path-16-Copy-5复制-10" stroke="#B8B8B8"></path>
                <path d="M51,120.5 L64,120.5" id="Path-16-Copy-5复制-11" stroke="#B8B8B8"></path>
                <path d="M75,153.5 L88,153.5" id="Path-16-Copy-5复制-12" stroke="#B8B8B8"></path>
                <path d="M99,187.5 L112,187.5" id="Path-16-Copy-5复制-14" stroke="#B8B8B8"></path>
                <path d="M27,224.5 L40,224.5" id="Path-16-Copy-5复制-13" stroke="#B8B8B8"></path>
                <text id="海纳小区复制" font-family=".PingFangSC-Regular, .PingFang SC" font-size="12" font-weight="normal" letter-spacing="-0.324" fill="#000000">
                    <tspan x="39" y="56">海纳小区</tspan>
                </text>
                <text id="一级名称复制" font-family=".PingFangSC-Regular, .PingFang SC" font-size="12" font-weight="normal" letter-spacing="-0.324" fill="#000000">
                    <tspan x="61" y="92">一级名称</tspan>
                </text>
                <text id="二级名称复制" font-family=".PingFangSC-Regular, .PingFang SC" font-size="12" font-weight="normal" letter-spacing="-0.324" fill="#000000">
                    <tspan x="85" y="123">二级名称</tspan>
                </text>
                <text id="三级名称复制" font-family=".PingFangSC-Regular, .PingFang SC" font-size="12" font-weight="normal" letter-spacing="-0.324" fill="#000000">
                    <tspan x="110" y="157">三级名称</tspan>
                </text>
                <text id="四级名称" font-family=".PingFangSC-Regular, .PingFang SC" font-size="12" font-weight="normal" letter-spacing="-0.324" fill="#000000">
                    <tspan x="117" y="189">四级名称</tspan>
                </text>
                <text id="一级名称复制-2" font-family=".PingFangSC-Regular, .PingFang SC" font-size="12" font-weight="normal" letter-spacing="-0.324" fill="#000000">
                    <tspan x="61" y="228">一级名称</tspan>
                </text>
                <text id="示例复制-5" font-family=".PingFangSC-Regular, .PingFang SC" font-size="12" font-weight="normal" fill="#4A4A4A">
                    <tspan x="20" y="22">示例</tspan>
                </text>
            </g>
        </g>
    </g>
</svg>